<?xml version="1.0" standalone="no"?>
<!DOCTYPE svg PUBLIC "-//W3C//DTD SVG 1.1//EN" "http://www.w3.org/Graphics/SVG/1.1/DTD/svg11.dtd" >
<svg xmlns="http://www.w3.org/2000/svg" xmlns:xlink="http://www.w3.org/1999/xlink" version="1.1">
<metadata>
Created by FontForge 20181014 at Mon Jun  1 08:52:52 2020
 By convertio
Silverdav Studio
</metadata>
<defs>
<font id="BackslashRegular" horiz-adv-x="0" >
  <font-face 
    font-family="Backslash"
    font-weight="400"
    font-stretch="normal"
    units-per-em="1000"
    panose-1="0 0 0 0 0 0 0 0 0 0"
    ascent="800"
    descent="-200"
    x-height="468"
    cap-height="723"
    bbox="-27 -241.786 4480 903"
    underline-thickness="0"
    underline-position="0"
    unicode-range="U+000A-F001"
  />
<missing-glyph horiz-adv-x="527" 
d="M50 700h427v-700h-427v700zM78 680l185 -309l186 309h-371zM251 350l-180 300v-601zM264 329l-185 -308h370zM276 350l181 -303v605z" />
    <glyph glyph-name="Backslash.liga" unicode="Backslash" horiz-adv-x="4530" 
d="M471 386q110 -22 176 -80.5t66 -158.5q0 -55 -28.5 -107t-78 -92.5t-122 -65t-153.5 -24.5q-59 0 -107.5 15.5t-80 40t-53 55.5t-31 61t-9.5 58q0 114 95 162q77 39 165 15q79 -22 100 -80q6 -17 6 -35q0 -26 -15.5 -49.5t-47.5 -28.5q-33 -6 -60.5 16.5t-21.5 59.5
q18 12 21 34t-8 39t-29 17q-42 0 -73 -44.5t-31 -102.5v-2q0 -20 6 -44.5t20 -51.5t34 -49.5t51.5 -38t68.5 -16.5q49 0 88.5 19t63 47.5t39 65t21.5 68.5t6 60q0 31 -5 59t-18.5 58t-35.5 51.5t-59.5 35t-85.5 13.5h-14v-83q-79 30 -159 2v368q0 12 -19.5 35.5t-27.5 23.5
v9h255q73 0 129 -18t89 -55t33 -88q0 -67 -43 -110t-117 -64zM331 399q42 3 73.5 19.5t48 41.5t24 50.5t7.5 52.5q0 45 -38.5 83.5t-114.5 39.5v-287zM1214 72q5 0 5 -5q-5 -32 -45 -50t-83 -18q-30 0 -54.5 16t-35.5 39q-110 -76 -184 -45q-49 21 -53 77q-5 64 58 115
q63 49 169 59v115q0 13 -3 23.5t-9 18t-14.5 11t-19.5 3.5q-17 0 -28 -17t-8.5 -39t21.5 -34q6 -38 -21.5 -60t-60.5 -17q-32 6 -47.5 29t-15.5 50q0 68 74 102q75 35 159 10q94 -28 122 -113q10 -29 10 -64l1 -193q0 -37 22 -40q12 -1 22 4.5t13 17.5q2 5 6 5zM991 238
q-67 -11 -92 -63q-21 -43 3 -73q27 -32 90 -13zM1605 152q2 2 5.5 3t6 0t2.5 -3q-12 -67 -65 -109.5t-121 -42.5q-83 0 -144.5 66.5t-61.5 161.5q0 113 59 177t144 64q47 0 88.5 -20.5t66.5 -56t25 -75.5q0 -59 -43.5 -92t-95.5 -10q-29 13 -40.5 41t-7.5 50.5t13 24.5
q27 8 30.5 34t-12.5 48t-39 19q-35 -4 -53.5 -66.5t-2.5 -137.5q13 -65 52 -100t92 -37q15 -1 30 2.5t28.5 11t25 20t18.5 27.5zM2135 67q51 -59 63 -59v-9h-225v9q5 0 11 8.5t5.5 23t-13.5 27.5l-116 163l-15 -20v-143q0 -12 20.5 -35.5t28.5 -23.5v-9h-255v9
q8 0 27.5 23.5t19.5 35.5v558q0 9 -4.5 17t-9 12t-11.5 8.5t-8 4.5q-9 7 0 9q114 9 185 56q7 4 7 -5v-471l87 113q20 27 16.5 47.5t-14.5 32t-18 10.5v10h178v-10q-8 0 -22 -7.5t-31.5 -19.5t-37 -29t-36.5 -34l-32 -41zM2433 300l12 -9q22 -15 32.5 -23t28 -22t26.5 -26
t19 -28.5t14 -36t4 -41.5q0 -43 -28 -73t-69.5 -42.5t-90.5 -12.5h-4q-68 0 -108.5 30.5t-55.5 74.5q-8 27 -6.5 57t20 58t48.5 41q26 11 60.5 -0.5t41.5 -42.5q5 -25 -12 -50t-45 -22q-18 19 -29 16t-15.5 -18.5t-0.5 -34.5q1 -8 6 -19t15.5 -25.5t31.5 -25t49 -11.5
q42 0 63 23t21 51q0 21 -18.5 38t-52.5 36q13 29 5 55t-30 38.5t-51 15.5t-57 -14q-27 37 -27 84q0 58 47.5 96.5t123.5 38.5q31 0 58.5 -11.5t43.5 -22.5t19.5 -11t6 2t3.5 4l4 8h7v-121h-10q0 43 -39 81t-90 38q-34 0 -55.5 -13t-21.5 -35q1 -14 12 -28t22.5 -22t36 -23
t35.5 -22zM2819 50q0 -12 20 -27t29 -15v-9h-254v9q5 0 16 6.5t21 16.5t10 19v565q0 9 -5 17t-9.5 12t-11.5 8.5t-7 5.5q-10 7 0 9q113 8 184 55q7 5 7 -5v-27v-640zM3363 72q5 0 5 -5q-5 -32 -45 -50t-83 -18q-30 0 -54.5 16t-35.5 39q-110 -76 -183 -45q-50 21 -54 77
q-4 64 59 115q62 49 168 59v115q0 27 -12 41.5t-33 14.5q-18 0 -29 -17t-8 -39t21 -34q4 -25 -8.5 -44.5t-32.5 -27.5t-41 -5q-32 6 -47.5 29t-15.5 50q0 68 74 102q75 35 160 10q94 -28 121 -113q10 -29 10 -64l1 -193q0 -37 22 -40q6 -1 11.5 0.5t10 4t8.5 7t6 10.5
q1 5 5 5zM3140 238q-66 -11 -92 -63q-21 -44 4 -73q27 -32 90 -13zM3603 300l12 -9q26 -18 39 -27.5t32.5 -27.5t28.5 -33.5t16.5 -38.5t7.5 -50q0 -26 -10.5 -46.5t-28.5 -33.5t-42.5 -21.5t-50.5 -11.5t-56 -3q-35 0 -69 9.5t-37 9.5q-8 0 -12.5 -5.5t-9.5 -17.5h-10
l-2 120h12q9 -47 44 -67.5t78 -20.5q23 0 42.5 8t31.5 22.5t12 31.5q0 9 -3 17t-10.5 16t-15 14t-20 14t-21.5 13t-24.5 13t-23.5 13q-54 31 -83.5 65t-29.5 88q0 58 47.5 96.5t123.5 38.5q31 0 58.5 -11.5t43.5 -22.5t19.5 -11t6 2t3.5 4l4 8h7v-121h-10q0 43 -39 81
t-90 38q-34 0 -55.5 -13t-21.5 -35q1 -14 12 -28t22.5 -22t36 -23t35.5 -22zM4417 -21q32 -6 47.5 -29t15.5 -50q0 -68 -75 -102q-74 -34 -159 -10q-94 28 -122 113q-9 30 -9 64v358q0 37 -10.5 56.5t-26.5 21.5t-35 -5.5t-36 -22t-31 -31.5v-292q0 -12 20 -27t30 -15v-9
h-255v9q9 0 28 15t19 27v558q0 9 -4.5 17t-9.5 12t-12 8.5t-7 5.5q-10 7 0 9q113 8 184 55q7 5 7 -5v-329q79 76 147.5 96.5t109 -19.5t40.5 -135v-454q0 -27 12.5 -42t33.5 -15q17 0 28.5 17t8.5 39.5t-22 34.5q-5 37 22.5 59.5t60.5 16.5z" />
    <glyph glyph-name="backslash.liga" unicode="backslash" horiz-adv-x="4518" 
d="M465 386q110 -22 176 -80.5t66 -158.5q0 -55 -28.5 -107t-78 -92.5t-122 -65t-153.5 -24.5q-59 0 -107.5 15.5t-80 40t-53 55.5t-31 61t-9.5 58q0 114 95 162q77 39 165 15q79 -22 100 -80q6 -17 6 -35q0 -26 -15.5 -49.5t-47.5 -28.5q-33 -6 -60.5 16.5t-21.5 59.5
q18 12 21 34t-8 39t-29 17q-42 0 -73 -44.5t-31 -102.5v-2q0 -20 6 -44.5t20 -51.5t34 -49.5t51.5 -38t68.5 -16.5q49 0 88.5 19t63 47.5t39 65t21.5 68.5t6 60q0 31 -5 59t-18.5 58t-35.5 51.5t-59.5 35t-85.5 13.5h-14v-83q-79 30 -159 2v368q0 12 -19.5 35.5t-27.5 23.5
v9h255q73 0 129 -18t89 -55t33 -88q0 -67 -43 -110t-117 -64zM325 399q42 3 73.5 19.5t48 41.5t24 50.5t7.5 52.5q0 45 -38.5 83.5t-114.5 39.5v-287zM1208 72q5 0 5 -5q-5 -32 -45 -50t-83 -18q-30 0 -54.5 16t-35.5 39q-110 -76 -184 -45q-49 21 -53 77q-5 64 58 115
q63 49 169 59v115q0 27 -12 41.5t-34 14.5q-17 0 -28 -17t-8.5 -39t21.5 -34q6 -38 -21.5 -60t-60.5 -17q-32 6 -47.5 29t-15.5 50q0 68 74 102q75 35 159 10q94 -28 122 -113q10 -29 10 -64l1 -193q0 -37 22 -40q12 -1 22 4.5t13 17.5q2 5 6 5zM985 238q-67 -11 -92 -63
q-21 -43 3 -73q27 -32 90 -13zM1599 152q2 2 5.5 3t6 0t2.5 -3q-12 -67 -65 -109.5t-121 -42.5q-83 0 -144.5 66.5t-61.5 161.5q0 113 59 177t144 64q47 0 88.5 -20.5t66.5 -56t25 -75.5q0 -59 -43.5 -92t-95.5 -10q-29 13 -40.5 41t-7.5 50.5t13 24.5q27 8 30.5 34
t-12.5 48t-39 19q-35 -4 -53.5 -66.5t-2.5 -137.5q13 -65 52 -100t92 -37q15 -1 30 2.5t28.5 11t25 20t18.5 27.5zM2129 67q51 -59 63 -59v-9h-225v9q5 0 11 8.5t5.5 23t-13.5 27.5l-116 163l-15 -20v-143q0 -12 20.5 -35.5t28.5 -23.5v-9h-255v9q8 0 27.5 23.5t19.5 35.5
v558q0 9 -4.5 17t-9 12t-11.5 8.5t-8 4.5q-9 7 0 9q114 9 185 56q7 4 7 -5v-471l87 113q20 27 16.5 47.5t-14.5 32t-18 10.5v10h178v-10q-10 0 -31 -12.5t-47 -33.5t-49 -44l-32 -41zM2427 300l12 -9q22 -15 32.5 -23t28 -22t26.5 -26t19 -28.5t14 -36t4 -41.5
q0 -43 -28 -73t-69.5 -42.5t-90.5 -12.5h-4q-68 0 -108.5 30.5t-55.5 74.5q-8 27 -6.5 57t20 58t48.5 41q26 11 60.5 -0.5t41.5 -42.5q5 -25 -12 -50t-45 -22q-18 19 -29 16t-15.5 -18.5t-0.5 -34.5q1 -8 6 -19t15.5 -25.5t31.5 -25t49 -11.5q42 0 63 23t21 51
q0 21 -18.5 38t-52.5 36q13 29 5 55t-30 38.5t-51 15.5t-57 -14q-27 37 -27 84q0 58 47.5 96.5t123.5 38.5q31 0 58.5 -11.5t43.5 -22.5t19.5 -11t6 2t3.5 4l4 8h7v-121h-10q0 43 -39 81t-90 38q-34 0 -55.5 -13t-21.5 -35q1 -12 7 -22t18 -20t23 -17t29 -18t29 -18z
M2813 50q0 -12 20 -27t29 -15v-9h-254v9q5 0 16 6.5t21 16.5t10 19v565q0 9 -5 17t-9.5 12t-11.5 8.5t-7 5.5q-10 7 0 9q113 8 184 55q7 5 7 -5v-27v-640zM3357 72q5 0 5 -5q-5 -32 -45 -50t-83 -18q-30 0 -54.5 16t-35.5 39q-110 -76 -183 -45q-50 21 -54 77q-4 64 59 115
q62 49 168 59v115q0 27 -12 41.5t-33 14.5q-18 0 -29 -17t-8 -39t21 -34q6 -38 -21.5 -60t-60.5 -17q-32 6 -47.5 29t-15.5 50q0 68 74 102q75 35 160 10q94 -28 121 -113q10 -29 10 -64l1 -193q0 -37 22 -40q12 -1 22 4.5t14 17.5q1 5 5 5zM3134 238q-66 -11 -92 -63
q-21 -44 4 -73q27 -32 90 -13zM3597 300l12 -9q26 -18 39 -27.5t32.5 -27.5t28.5 -33.5t16.5 -38.5t7.5 -50q0 -26 -10.5 -46.5t-28.5 -33.5t-42.5 -21.5t-50.5 -11.5t-56 -3q-35 0 -69 9.5t-37 9.5q-8 0 -12.5 -5.5t-9.5 -17.5h-10l-2 120h12q9 -47 44 -67.5t78 -20.5
q23 0 42.5 8t31.5 22.5t12 31.5q0 9 -3 17t-10.5 16t-15 14t-20 14t-21.5 13t-24.5 13t-23.5 13q-26 15 -44 28t-35 31t-25.5 41.5t-8.5 52.5q0 58 47.5 96.5t123.5 38.5q31 0 58.5 -11.5t43.5 -22.5t19.5 -11t6 2t3.5 4l4 8h7v-121h-10q0 43 -39 81t-90 38q-34 0 -55.5 -13
t-21.5 -35q1 -12 7 -22t18 -20t23 -17t29 -18t29 -18zM4411 -21q32 -6 47.5 -29t15.5 -50q0 -68 -75 -102q-74 -34 -159 -10q-94 28 -122 113q-9 30 -9 64v358q0 37 -10.5 56.5t-26.5 21.5t-35 -5.5t-36 -22t-31 -31.5v-292q0 -12 20 -27t30 -15v-9h-255v9q9 0 28 15t19 27
v558q0 8 -3 14t-7.5 11t-8.5 8t-8.5 6t-5.5 4q-10 7 0 9q113 8 184 55q7 5 7 -5v-329q79 76 147.5 96.5t109 -19.5t40.5 -135v-454q0 -27 12.5 -42t33.5 -15q17 0 28.5 17t8.5 39.5t-22 34.5q-5 37 22.5 59.5t60.5 16.5z" />
    <glyph glyph-name=".notdef" horiz-adv-x="527" 
d="M50 700h427v-700h-427v700zM78 680l185 -309l186 309h-371zM251 350l-180 300v-601zM264 329l-185 -308h370zM276 350l181 -303v605z" />
    <glyph glyph-name=".null" 
 />
    <glyph glyph-name=".null" 
 />
    <glyph glyph-name="nonmarkingreturn" horiz-adv-x="333" 
 />
    <glyph glyph-name="controlLF" unicode="&#xa;" 
 />
    <glyph glyph-name="controlCR" unicode="&#xd;" 
 />
    <glyph glyph-name="space" unicode=" " horiz-adv-x="282" 
 />
    <glyph glyph-name="numbersign" unicode="#" horiz-adv-x="543" 
d="M507 322l-81 1l-22 -98h72l-13 -57h-71l-39 -168h-59l39 169l-143 1l-39 -170h-59l39 170l-108 1l12 57h109l22 96l-100 1l13 57h100l35 157h59l-36 -159h143l36 159h59l-36 -160h81zM346 227l21 96l-142 1l-22 -97h143z" />
    <glyph glyph-name="dollar" unicode="$" horiz-adv-x="570" 
d="M321 502q30 -16 44.5 -24.5t42 -26t42 -30t34.5 -32t30 -37.5t17.5 -41.5t7.5 -48.5q0 -54 -31.5 -94t-79 -61t-107.5 -28v-79h-59v75q-52 0 -108.5 14t-63.5 14q-10 0 -16.5 -7.5t-13.5 -25.5h-14l-4 192h18q9 -46 38.5 -80.5t71.5 -53t92 -20.5v250q-33 19 -56 31
q-166 89 -166 210q0 79 61 134t161 63v101h59v-101q38 -5 72.5 -21t54 -30t23.5 -14q5 0 8 4t9 16h13v-177h-17q0 62 -44.5 117.5t-118.5 63.5v-253zM262 534v218q-48 -6 -83 -29.5t-35 -58.5q0 -21 9 -40t28.5 -35.5t36 -27.5t44.5 -27zM321 113q77 19 77 91q0 28 -8 48.5
t-24 37t-45 34.5v-211z" />
    <glyph glyph-name="percent" unicode="%" horiz-adv-x="513" 
d="M147 425q-51 2 -86.5 41.5t-35.5 96.5q0 55 37 92.5t89 37.5q33 -2 61 -18.5t44.5 -46.5t16.5 -68q0 -56 -37.5 -96t-88.5 -39zM149 642q-11 1 -15.5 -28.5t-4.5 -53.5q0 -86 19 -86q11 0 15.5 32.5t4.5 53.5q0 81 -19 82zM377 693h59l-321 -693h-58zM366.5 296
q51.5 -2 87 -39t35.5 -94q0 -56 -37.5 -96.5t-88.5 -38.5t-86.5 41.5t-35.5 97.5q0 55 37 93t88.5 36zM364 77q11 0 15.5 32.5t4.5 53.5q0 81 -19 82q-11 1 -15.5 -28.5t-4.5 -53.5q0 -86 19 -86z" />
    <glyph glyph-name="ampersand" unicode="&#x26;" horiz-adv-x="659" 
d="M425 389q28 -21 48 -37.5t43 -39.5t36.5 -43.5t21 -46t4.5 -49.5q-4 -35 -20.5 -63t-39.5 -46.5t-53 -32t-59.5 -20.5t-61.5 -11l-9 13q60 12 87 46t5 83q-15 31 -53.5 63.5t-83.5 61.5t-89 61.5t-77.5 77t-42.5 95.5q-6 39 4 77.5t33.5 70t64 49t91.5 13.5
q46 -3 80.5 -34t34.5 -71q0 -19 -6 -36.5t-11.5 -27t-22 -24t-20.5 -17t-24 -16.5l-6 7q21 33 29 74t-2.5 70.5t-37.5 27.5q-32 -1 -47.5 -43t-0.5 -70q14 -27 35 -49.5t40 -36t53.5 -37t56.5 -39.5zM596 556q24 -8 32.5 -28.5t5.5 -36.5q-5 -37 -33 -53.5t-51 -3.5
q-19 11 -22 31.5t16 47.5q3 4 -1 4q-18 -1 -50 -34q-37 -38 -57 -93l-5 4q2 18 9.5 41.5t21.5 49.5t33.5 45.5t44.5 28t56 -2.5zM376 193l7 -3q-2 -20 -25.5 -55t-63 -69.5t-90 -47.5t-106.5 13q-25 12 -42 39t-21 64t4.5 77.5t36.5 83t72 76.5l11 -13q-33 -51 -21.5 -102
t57.5 -80q57 -38 100 -35t81 52z" />
    <glyph glyph-name="parenleft" unicode="(" horiz-adv-x="284" 
d="M266 880q6 3 8 -7q2 -17 -8 -33q-63 -110 -89 -198.5t-26 -206.5q0 -206 109 -387q15 -22 10 -42q-2 -8 -10 -5q-60 31 -112.5 105.5t-82 163t-30.5 165.5q-2 282 231 445z" />
    <glyph glyph-name="parenright" unicode=")" horiz-adv-x="284" 
d="M17 880q233 -163 231 -445q0 -77 -30 -165.5t-82.5 -163t-112.5 -105.5q-9 -4 -11 10q-1 19 11 37q109 181 109 387q0 118 -26 206.5t-89 198.5q-13 20 -7 36q2 6 7 4z" />
    <glyph glyph-name="asterisk" unicode="*" horiz-adv-x="369" 
d="M120 611q-9 -9 -23 -10.5t-23 8.5q-6 3 -10 15q-8 21 3 34l1 1q74 59 104 76q-13 0 -38.5 3.5t-52.5 7.5t-33 5q-1 1 -4 1t-7 3q-10 9 -11 22q-4 13 1 23q3 12 17 17t27 -2q5 -2 27 -16t47 -31t34 -25q-6 17 -16 60.5t-12 62.5q-1 2 -1 6q0 13 10.5 22t23.5 9
q7 0 13 -2.5t10.5 -6.5t7.5 -10t3 -12q0 -5 -1 -7q-3 -19 -13 -62.5t-16 -61.5q13 12 57.5 41.5t51.5 32.5q13 7 27 2t17 -17q5 -10 2 -23q-2 -13 -12 -22q-4 -3 -7 -3t-4 -1q-6 -1 -24 -3.5t-35 -5t-36 -5t-29 -2.5q30 -17 104 -76l2 -1q10 -13 2 -34q-4 -12 -10 -15
q-9 -10 -23 -8.5t-22 10.5l-1 1q-5 5 -8 12q-12 22 -32 60t-24 50h-1q-4 -12 -23 -50t-32 -60q-3 -7 -7 -12z" />
    <glyph glyph-name="comma" unicode="," horiz-adv-x="190" 
d="M135 202q24 -14 29 -42t-6.5 -58t-39 -58.5t-64.5 -43.5q-4 -1 -7.5 0.5t-5.5 3.5t-1 4q37 26 37 66.5t-40 57.5q-26 14 -9 44q18 33 57 38q25 3 50 -12z" />
    <glyph glyph-name="one" unicode="1" horiz-adv-x="315" 
d="M236 50q0 -11 20 -26t30 -15v-9h-255v9q9 0 28 15t19 26v511q0 9 -4.5 17t-9.5 12t-12 8.5l-7 4.5q-10 8 0 10q44 3 99.5 39t84.5 71q3 3 5 1.5t2 -6.5v-27v-641z" />
    <glyph glyph-name="two" unicode="2" horiz-adv-x="574" 
d="M536 529q-3 -50 -30.5 -94t-71 -80.5t-89 -67.5t-98 -69.5t-85.5 -73.5l302 -1q12 0 22 5t15.5 11.5l11 13t7.5 9.5t5 0v-182h-493q13 53 52.5 112.5t86.5 111.5t92.5 104.5t76.5 108t32 103.5q0 9 1.5 29.5t-4 47t-14.5 49.5t-31 36t-53 7q-36 -7 -61.5 -41.5t-33.5 -79
t3 -93.5t41 -82q6 -38 -14 -63t-51 -25q-20 1 -42.5 14t-38.5 31t-23 36q-15 32 -15.5 73t15 83.5t43.5 80t74.5 63.5t102.5 31q44 4 90 -7t85 -35.5t64.5 -67.5t25.5 -98z" />
    <glyph glyph-name="three" unicode="3" horiz-adv-x="607" 
d="M330 417q58 -5 113.5 -30t94.5 -71t39 -100q0 -47 -18.5 -85.5t-48 -63.5t-68 -42.5t-77 -25t-77.5 -7.5q-47 0 -89 11.5t-72.5 32t-53 47t-33 56t-10 60.5t13.5 59q13 32 46.5 60t67.5 29q35 0 57 -26.5t15 -69.5q-32 -35 -43 -76t-2 -73t30.5 -54.5t47.5 -25.5
q31 -2 55 8.5t37.5 29.5t23 39.5t13.5 43t5 33.5t1 18q3 35 -1.5 68t-18.5 65t-44 54t-73 27q-15 2 -21 4q-3 1 -3 4t3 4q14 2 21 5q114 44 114 151v2q0 11 -0.5 22t-6 34.5t-15.5 39.5t-32.5 28t-52.5 9q-21 -2 -38 -19.5t-24 -42.5t1.5 -57t34.5 -60q4 -34 -13 -56
t-43 -22q-28 2 -55 24t-37 47q-10 28 -10 57t16 57.5t41 50.5t63.5 35t83.5 13q39 0 77.5 -10t73.5 -30t56.5 -56.5t21.5 -82.5q0 -40 -29.5 -72t-70.5 -49t-87 -21z" />
    <glyph glyph-name="four" unicode="4" horiz-adv-x="644" 
d="M594 331q1 3 5.5 4.5t8 0t3.5 -4.5v-207q0 -2 -3.5 -3.5t-8 -0.5t-5.5 4q-14 41 -28 57.5t-51 23.5v-155q0 -11 20 -26t29 -15v-9h-255v9q9 0 28 15t19 26v162h-306l430 526h35v-488q19 4 31.5 10t21.5 17t13.5 22t12.5 32zM356 243v302l-246 -302h246z" />
    <glyph glyph-name="five" unicode="5" horiz-adv-x="556" 
d="M518 587h-413l-15 -164q76 65 199 65q20 0 48 -8t60 -27t58.5 -44.5t44.5 -64.5t18 -83q0 -64 -24 -115.5t-62.5 -82t-84.5 -47t-93 -16.5q-54 0 -97.5 17t-68 42.5t-37.5 52.5t-13 51q0 41 24 68.5t59 22.5q28 -4 47.5 -21.5t22 -37t-8.5 -35.5q-25 -10 -27.5 -40.5
t22.5 -58t68 -27.5q23 0 41.5 9.5t30.5 23.5t20.5 35.5t12.5 38.5t6 40t2 33v24q-1 64 -13.5 111t-39.5 77t-67 33q-27 0 -49 -5t-38.5 -15t-26.5 -17.5t-22.5 -19.5t-15.5 -15h-35l32 335h359q9 0 16.5 2.5t13 7t10 9t7.5 9t6 8t4.5 4.5t3.5 -1z" />
    <glyph glyph-name="six" unicode="6" horiz-adv-x="584" 
d="M310 479q42 0 83.5 -15.5t77 -44t57 -76.5t21.5 -107q0 -50 -16 -91t-41.5 -67t-58 -44.5t-63.5 -26t-60 -7.5q-122 0 -199 98t-77 261q0 95 45 183t116.5 140.5t146.5 52.5q50 2 94.5 -15t67 -47.5t9.5 -65.5q-16 -43 -65 -49q-39 -5 -53 17q-7 10 -2 24q22 39 -5.5 72
t-74.5 17q-31 -11 -54.5 -37.5t-38 -62.5t-22 -70.5t-11.5 -72.5q55 34 123 34zM310 47q26 0 47 20t32 51t16.5 63.5t5.5 62.5q0 49 -9.5 91.5t-33.5 72.5t-58 30q-54 0 -92.5 -72.5t-26.5 -170.5q28 -148 119 -148z" />
    <glyph glyph-name="seven" unicode="7" horiz-adv-x="602" 
d="M30 548v175h521l-56 -133q-14 -26 -47.5 -76.5t-67.5 -98t-67.5 -104.5t-53 -102.5t-17 -85.5t34.5 -60q-5 -25 -26 -42t-49 -20t-56 3.5t-50.5 28t-30.5 53.5q-10 50 9.5 101t63 99t90.5 93t103.5 102t90.5 106h-331q-12 0 -22 -5t-15.5 -11.5l-11 -13t-7.5 -9.5t-5 0z
" />
    <glyph glyph-name="eight" unicode="8" horiz-adv-x="596" 
d="M390 383q78 -21 126.5 -71t48.5 -112q0 -81 -77.5 -137.5t-188.5 -56.5q-110 0 -188 56.5t-78 137.5q0 60 46.5 109.5t121.5 70.5q-62 21 -99.5 65.5t-37.5 101.5q0 78 66.5 133.5t160.5 55.5q95 0 162 -55.5t67 -133.5q0 -55 -35.5 -99t-94.5 -65zM291 701
q-31 0 -53 -44.5t-22 -109.5t22 -109t53 -44t54 44.5t23 108.5q0 32 -6.5 60.5t-17 49t-24.5 32.5t-29 12zM299.5 42q35.5 0 62 46t26.5 112t-26.5 116t-62 50t-62 -50t-26.5 -116t26.5 -112t62 -46z" />
    <glyph glyph-name="nine" unicode="9" horiz-adv-x="578" 
d="M274 736q116 0 192 -77t76 -216q0 -92 -25.5 -175t-67 -141t-96 -92t-110.5 -34q-50 1 -94 25.5t-66 61t-12 72.5q18 47 82 52q52 4 75 -19q12 -11 7 -25q-25 -23 -28 -56.5t15.5 -53.5t48.5 -10q31 11 55 37.5t38 62.5t22 70.5t12 72.5q-56 -34 -124 -34
q-42 0 -83.5 15.5t-76.5 44t-57 76.5t-22 107q0 50 16 91t41.5 67t58 44.5t63.5 26t60 7.5zM274 298q54 0 93 72.5t26 170.5q-28 148 -119 148q-26 0 -46.5 -20t-32 -51t-16.5 -63.5t-5 -62.5q0 -49 9.5 -91t33 -72.5t57.5 -30.5z" />
    <glyph glyph-name="A" unicode="A" horiz-adv-x="638" 
d="M113 9v-9h-120v9q11 0 28 19.5t24 39.5l193 582q-1 3 -3.5 6t-4.5 5t-3.5 4.5t0.5 4.5q1 3 20.5 5.5t56 13t72.5 33.5l218 -654q7 -18 24 -38.5t25 -20.5v-9h-254v9q10 0 31.5 21t15.5 38l-76 221h-207l-73 -221q-8 -25 4.5 -42t28.5 -17zM256 598l-93 -280h188z" />
    <glyph glyph-name="A" unicode="&#xc5;" horiz-adv-x="638" 
d="M113 9v-9h-120v9q11 0 28 19.5t24 39.5l193 582q-1 3 -3.5 6t-4.5 5t-3.5 4.5t0.5 4.5q1 3 20.5 5.5t56 13t72.5 33.5l218 -654q7 -18 24 -38.5t25 -20.5v-9h-254v9q10 0 31.5 21t15.5 38l-76 221h-207l-73 -221q-8 -25 4.5 -42t28.5 -17zM256 598l-93 -280h188z" />
    <glyph glyph-name="A" unicode="&#xc4;" horiz-adv-x="638" 
d="M113 9v-9h-120v9q11 0 28 19.5t24 39.5l193 582q-1 3 -3.5 6t-4.5 5t-3.5 4.5t0.5 4.5q1 3 20.5 5.5t56 13t72.5 33.5l218 -654q7 -18 24 -38.5t25 -20.5v-9h-254v9q10 0 31.5 21t15.5 38l-76 221h-207l-73 -221q-8 -25 4.5 -42t28.5 -17zM256 598l-93 -280h188z" />
    <glyph glyph-name="A" unicode="&#xc3;" horiz-adv-x="638" 
d="M113 9v-9h-120v9q11 0 28 19.5t24 39.5l193 582q-1 3 -3.5 6t-4.5 5t-3.5 4.5t0.5 4.5q1 3 20.5 5.5t56 13t72.5 33.5l218 -654q7 -18 24 -38.5t25 -20.5v-9h-254v9q10 0 31.5 21t15.5 38l-76 221h-207l-73 -221q-8 -25 4.5 -42t28.5 -17zM256 598l-93 -280h188z" />
    <glyph glyph-name="A" unicode="&#xc2;" horiz-adv-x="638" 
d="M113 9v-9h-120v9q11 0 28 19.5t24 39.5l193 582q-1 3 -3.5 6t-4.5 5t-3.5 4.5t0.5 4.5q1 3 20.5 5.5t56 13t72.5 33.5l218 -654q7 -18 24 -38.5t25 -20.5v-9h-254v9q10 0 31.5 21t15.5 38l-76 221h-207l-73 -221q-8 -25 4.5 -42t28.5 -17zM256 598l-93 -280h188z" />
    <glyph glyph-name="A" unicode="&#xc1;" horiz-adv-x="638" 
d="M113 9v-9h-120v9q11 0 28 19.5t24 39.5l193 582q-1 3 -3.5 6t-4.5 5t-3.5 4.5t0.5 4.5q1 3 20.5 5.5t56 13t72.5 33.5l218 -654q7 -18 24 -38.5t25 -20.5v-9h-254v9q10 0 31.5 21t15.5 38l-76 221h-207l-73 -221q-8 -25 4.5 -42t28.5 -17zM256 598l-93 -280h188z" />
    <glyph glyph-name="A" unicode="&#xc0;" horiz-adv-x="638" 
d="M113 9v-9h-120v9q11 0 28 19.5t24 39.5l193 582q-1 3 -3.5 6t-4.5 5t-3.5 4.5t0.5 4.5q1 3 20.5 5.5t56 13t72.5 33.5l218 -654q7 -18 24 -38.5t25 -20.5v-9h-254v9q10 0 31.5 21t15.5 38l-76 221h-207l-73 -221q-8 -25 4.5 -42t28.5 -17zM256 598l-93 -280h188z" />
    <glyph glyph-name="B" unicode="B" horiz-adv-x="623" 
d="M19 9q8 0 27.5 23.5t19.5 35.5v586q0 8 -10 22.5t-21 25.5t-16 11v9h255q112 0 181.5 -42.5t69.5 -118.5q0 -121 -142 -169q50 -6 88.5 -18.5t70 -35t48.5 -58.5t17 -85q0 -54 -28 -93t-80 -62t-120.5 -32.5t-154.5 -7.5h-205v9zM224 687v-287q43 3 74.5 19.5t48 41.5
t24 50.5t7.5 51.5q0 46 -38.5 84.5t-115.5 39.5zM239 367h-15v-336q60 0 104.5 16.5t68 43t34.5 53t12 53.5q2 75 -53.5 122.5t-150.5 47.5z" />
    <glyph glyph-name="C" unicode="C" horiz-adv-x="601" 
d="M546 80q-42 -39 -82.5 -60t-97.5 -20q-69 1 -133 30.5t-111 79t-75 119.5t-27 148q1 98 51.5 178.5t132 124.5t174.5 42q28 -1 50 -8t35 -15t43 -29l13 20q0 1 3.5 1t3.5 -1l8 -205q0 -4 -6.5 -10t-13 -8t-8.5 1q-13 88 -45.5 147t-82.5 60q-33 0 -60.5 -12.5t-45.5 -33
t-31.5 -49.5t-21 -56.5t-12.5 -58t-6 -51.5t-1 -40q0 -21 0.5 -42t4.5 -55.5t10 -63.5t18.5 -61t29.5 -54t43.5 -37t59.5 -15q32 -1 60 13t49 37t38 54t27.5 64t15.5 68q2 1 6 -2t8 -7.5t4 -7.5l-8 -204q0 -2 -4 -1l-3 1z" />
    <glyph glyph-name="C" unicode="&#xc7;" horiz-adv-x="601" 
d="M546 80q-42 -39 -82.5 -60t-97.5 -20q-69 1 -133 30.5t-111 79t-75 119.5t-27 148q1 98 51.5 178.5t132 124.5t174.5 42q28 -1 50 -8t35 -15t43 -29l13 20q0 1 3.5 1t3.5 -1l8 -205q0 -4 -6.5 -10t-13 -8t-8.5 1q-13 88 -45.5 147t-82.5 60q-33 0 -60.5 -12.5t-45.5 -33
t-31.5 -49.5t-21 -56.5t-12.5 -58t-6 -51.5t-1 -40q0 -21 0.5 -42t4.5 -55.5t10 -63.5t18.5 -61t29.5 -54t43.5 -37t59.5 -15q32 -1 60 13t49 37t38 54t27.5 64t15.5 68q2 1 6 -2t8 -7.5t4 -7.5l-8 -204q0 -2 -4 -1l-3 1z" />
    <glyph glyph-name="D" unicode="D" horiz-adv-x="670" 
d="M224 724q202 -1 314 -95t109 -263q-3 -172 -112.5 -268t-310.5 -96h-205v10q8 0 27.5 23t19.5 35v586q0 8 -10 22.5t-21 25.5t-16 11v9h205zM483 369q0 23 -1.5 46.5t-8 56t-17.5 61t-30.5 58t-46 50t-66.5 34t-89 14.5v-650q50 0 90.5 13.5t66.5 35t45.5 52.5t30 60
t16.5 64t7.5 57.5t2.5 47.5z" />
    <glyph glyph-name="E" unicode="E" horiz-adv-x="556" 
d="M512 223q2 3 8.5 4.5t12.5 0t6 -4.5l-28 -223h-492v9q8 0 27.5 23.5t19.5 35.5v586q0 8 -10 22.5t-21 25.5t-16 11v9h444l28 -182q0 -3 -6 -4.5t-12.5 0t-8.5 4.5q-6 31 -20.5 54.5t-35.5 37t-42 22.5t-46 12.5t-41.5 4.5t-35 0.5t-19.5 -0.5v-280q58 6 85.5 24t41.5 59
q1 2 3.5 3.5t4.5 1.5t4.5 -0.5t4 -1.5t1.5 -3v-210q0 -3 -3.5 -4t-8 0t-6.5 4q-9 28 -24.5 45t-39.5 25.5t-63 12.5v-297h18q24 0 37 0.5t36.5 1.5t38 4t35.5 9t34 14.5t29.5 21.5t26.5 30t19 40.5t14 51.5z" />
    <glyph glyph-name="E" unicode="&#xcb;" horiz-adv-x="556" 
d="M512 223q2 3 8.5 4.5t12.5 0t6 -4.5l-28 -223h-492v9q8 0 27.5 23.5t19.5 35.5v586q0 8 -10 22.5t-21 25.5t-16 11v9h444l28 -182q0 -3 -6 -4.5t-12.5 0t-8.5 4.5q-6 31 -20.5 54.5t-35.5 37t-42 22.5t-46 12.5t-41.5 4.5t-35 0.5t-19.5 -0.5v-280q58 6 85.5 24t41.5 59
q1 2 3.5 3.5t4.5 1.5t4.5 -0.5t4 -1.5t1.5 -3v-210q0 -3 -3.5 -4t-8 0t-6.5 4q-9 28 -24.5 45t-39.5 25.5t-63 12.5v-297h18q24 0 37 0.5t36.5 1.5t38 4t35.5 9t34 14.5t29.5 21.5t26.5 30t19 40.5t14 51.5z" />
    <glyph glyph-name="E" unicode="&#xca;" horiz-adv-x="556" 
d="M512 223q2 3 8.5 4.5t12.5 0t6 -4.5l-28 -223h-492v9q8 0 27.5 23.5t19.5 35.5v586q0 8 -10 22.5t-21 25.5t-16 11v9h444l28 -182q0 -3 -6 -4.5t-12.5 0t-8.5 4.5q-6 31 -20.5 54.5t-35.5 37t-42 22.5t-46 12.5t-41.5 4.5t-35 0.5t-19.5 -0.5v-280q58 6 85.5 24t41.5 59
q1 2 3.5 3.5t4.5 1.5t4.5 -0.5t4 -1.5t1.5 -3v-210q0 -3 -3.5 -4t-8 0t-6.5 4q-9 28 -24.5 45t-39.5 25.5t-63 12.5v-297h18q24 0 37 0.5t36.5 1.5t38 4t35.5 9t34 14.5t29.5 21.5t26.5 30t19 40.5t14 51.5z" />
    <glyph glyph-name="E" unicode="&#xc9;" horiz-adv-x="556" 
d="M512 223q2 3 8.5 4.5t12.5 0t6 -4.5l-28 -223h-492v9q8 0 27.5 23.5t19.5 35.5v586q0 8 -10 22.5t-21 25.5t-16 11v9h444l28 -182q0 -3 -6 -4.5t-12.5 0t-8.5 4.5q-6 31 -20.5 54.5t-35.5 37t-42 22.5t-46 12.5t-41.5 4.5t-35 0.5t-19.5 -0.5v-280q58 6 85.5 24t41.5 59
q1 2 3.5 3.5t4.5 1.5t4.5 -0.5t4 -1.5t1.5 -3v-210q0 -3 -3.5 -4t-8 0t-6.5 4q-9 28 -24.5 45t-39.5 25.5t-63 12.5v-297h18q24 0 37 0.5t36.5 1.5t38 4t35.5 9t34 14.5t29.5 21.5t26.5 30t19 40.5t14 51.5z" />
    <glyph glyph-name="E" unicode="&#xc8;" horiz-adv-x="556" 
d="M512 223q2 3 8.5 4.5t12.5 0t6 -4.5l-28 -223h-492v9q8 0 27.5 23.5t19.5 35.5v586q0 8 -10 22.5t-21 25.5t-16 11v9h444l28 -182q0 -3 -6 -4.5t-12.5 0t-8.5 4.5q-6 31 -20.5 54.5t-35.5 37t-42 22.5t-46 12.5t-41.5 4.5t-35 0.5t-19.5 -0.5v-280q58 6 85.5 24t41.5 59
q1 2 3.5 3.5t4.5 1.5t4.5 -0.5t4 -1.5t1.5 -3v-210q0 -3 -3.5 -4t-8 0t-6.5 4q-9 28 -24.5 45t-39.5 25.5t-63 12.5v-297h18q24 0 37 0.5t36.5 1.5t38 4t35.5 9t34 14.5t29.5 21.5t26.5 30t19 40.5t14 51.5z" />
    <glyph glyph-name="F" unicode="F" horiz-adv-x="494" 
d="M464 540q-6 31 -20.5 54.5t-35.5 37t-42 22.5t-46 12.5t-41.5 4.5t-35 0.5t-19.5 -0.5v-280q58 6 85.5 24t41.5 59q1 2 3.5 3.5t4.5 1.5t4.5 -0.5t4 -1.5t1.5 -3v-210q0 -3 -3.5 -4t-8 0t-6.5 4q-14 42 -41.5 59.5t-85.5 23.5v-279q0 -12 20.5 -35.5t29.5 -23.5v-9h-255
v9q8 0 27.5 23.5t19.5 35.5v586q0 12 -19.5 35.5t-27.5 23.5v9h444l28 -182q0 -3 -6 -4.5t-12.5 0t-8.5 4.5z" />
    <glyph glyph-name="G" unicode="G" horiz-adv-x="671" 
d="M661 285q-10 0 -24 -12t-14 -29v-177q0 -2 -3 -1l-3 1l-10 10q-112 -77 -239 -77q-95 0 -175.5 52.5t-126 138.5t-45.5 183q0 103 50.5 185t131.5 124.5t175 40.5q86 -1 157 -51l13 20h3.5h3.5l8 -206q0 -10 -11 -17q-5 -1 -6 1q-8 56 -27.5 100.5t-56 75t-84.5 30.5
q-33 1 -60.5 -11t-45 -31t-31 -47t-21 -55t-12 -59t-5.5 -55t-1 -47q0 -21 0.5 -39.5t2.5 -48t7.5 -54.5t13 -54t20 -51t29.5 -40.5t41 -28.5t52 -10q36 0 59 14t25 41v143q0 13 -17.5 27t-29.5 14v10h256v-10z" />
    <glyph glyph-name="H" unicode="H" horiz-adv-x="693" 
d="M674 714q-5 0 -17 -11t-22 -25.5t-10 -22.5v-587q0 -12 20 -35.5t29 -23.5v-9h-255v9q5 0 16.5 11t21 25.5t9.5 22.5v282h-242v-282q0 -12 20.5 -35.5t29.5 -23.5v-9h-255v9q8 0 27.5 23.5t19.5 35.5v587q0 8 -10 22.5t-21 25.5t-16 11v9h255v-9q-9 0 -29.5 -23
t-20.5 -36v-276h242v276q0 12 -19.5 35.5t-27.5 23.5v9h255v-9z" />
    <glyph glyph-name="I" unicode="I" horiz-adv-x="292" 
d="M274 714q-8 1 -28.5 -22.5t-21.5 -36.5v-587q0 -12 20.5 -35.5t29.5 -23.5v-9h-255v9q8 0 27.5 23.5t19.5 35.5v587q0 8 -10 22.5t-21 25.5t-16 11v9h255v-9z" />
    <glyph glyph-name="I" unicode="&#xcf;" horiz-adv-x="292" 
d="M274 714q-8 1 -28.5 -22.5t-21.5 -36.5v-587q0 -12 20.5 -35.5t29.5 -23.5v-9h-255v9q8 0 27.5 23.5t19.5 35.5v587q0 8 -10 22.5t-21 25.5t-16 11v9h255v-9z" />
    <glyph glyph-name="I" unicode="&#xce;" horiz-adv-x="292" 
d="M274 714q-8 1 -28.5 -22.5t-21.5 -36.5v-587q0 -12 20.5 -35.5t29.5 -23.5v-9h-255v9q8 0 27.5 23.5t19.5 35.5v587q0 8 -10 22.5t-21 25.5t-16 11v9h255v-9z" />
    <glyph glyph-name="I" unicode="&#xcd;" horiz-adv-x="292" 
d="M274 714q-8 1 -28.5 -22.5t-21.5 -36.5v-587q0 -12 20.5 -35.5t29.5 -23.5v-9h-255v9q8 0 27.5 23.5t19.5 35.5v587q0 8 -10 22.5t-21 25.5t-16 11v9h255v-9z" />
    <glyph glyph-name="I" unicode="&#xcc;" horiz-adv-x="292" 
d="M274 714q-8 1 -28.5 -22.5t-21.5 -36.5v-587q0 -12 20.5 -35.5t29.5 -23.5v-9h-255v9q8 0 27.5 23.5t19.5 35.5v587q0 8 -10 22.5t-21 25.5t-16 11v9h255v-9z" />
    <glyph glyph-name="J" unicode="J" horiz-adv-x="270" 
d="M9 714v9h255v-9q-8 1 -28.5 -22.5t-21.5 -36.5v-587q0 -70 -67.5 -123.5t-162.5 -53.5q-2 0 -2 9t2 11q34 27 53 68.5t19 88.5v587q0 12 -19.5 35.5t-27.5 23.5z" />
    <glyph glyph-name="K" unicode="K" horiz-adv-x="625" 
d="M403 9q9 0 17 4.5t11.5 13.5t-6.5 23l-201 306v-288q0 -12 20.5 -35.5t29.5 -23.5v-9h-255v9q8 0 27.5 23.5t19.5 35.5v587q0 8 -10 22.5t-21 25.5t-16 11v9h255v-9q-8 1 -28.5 -22.5t-21.5 -36.5v-284l225 270q9 16 5 32t-14 28t-18 12v9h125v-9q-4 0 -37 -42l-186 -221
l260 -400q10 -17 25 -29t24 -12v-9h-230v9z" />
    <glyph glyph-name="L" unicode="L" horiz-adv-x="545" 
d="M539 223l-28 -223h-492v9q8 0 27.5 23.5t19.5 35.5v586q0 12 -19.5 35.5t-27.5 23.5v9h255v-9q-9 0 -29.5 -23.5t-20.5 -35.5v-604h18q24 0 37 0.5t36.5 1.5t38 4t35.5 9t34 14.5t29.5 21.5t26.5 30t19 40.5t14 51.5q2 3 8.5 4.5t12.5 0t6 -4.5z" />
    <glyph glyph-name="M" unicode="M" horiz-adv-x="789" 
d="M17 714q-1 0 -1.5 2t0 4t1.5 2h193l166 -475l187 475h207v-9q-8 0 -28.5 -23.5t-20.5 -35.5v-586q0 -12 20.5 -35.5t28.5 -23.5v-9h-254v9q7 0 27 23.5t20 35.5v571l-219 -577h-40l-203 510v-522q0 -13 14.5 -27t23.5 -14v-9h-120v9q12 0 29 14t18 27v610q-7 25 -19 36
t-30 18z" />
    <glyph glyph-name="N" unicode="N" horiz-adv-x="634" 
d="M19 695q-1 0 -1.5 6.5t0 13.5t1.5 7h210l318 -465v414q-1 14 -18 28t-29 14v9h120v-9q-9 0 -23.5 -14.5t-14.5 -27.5v-671h-35l-444 599v-549q0 -13 14.5 -27t23.5 -14v-9h-120v9q12 0 29 14t18 27v596q-8 14 -18 24.5t-20 17t-11 7.5z" />
    <glyph glyph-name="N" unicode="&#xd1;" horiz-adv-x="634" 
d="M19 695q-1 0 -1.5 6.5t0 13.5t1.5 7h210l318 -465v414q-1 14 -18 28t-29 14v9h120v-9q-9 0 -23.5 -14.5t-14.5 -27.5v-671h-35l-444 599v-549q0 -13 14.5 -27t23.5 -14v-9h-120v9q12 0 29 14t18 27v596q-8 14 -18 24.5t-20 17t-11 7.5z" />
    <glyph glyph-name="O" unicode="O" horiz-adv-x="717" 
d="M695 366q0 -99 -46.5 -184t-125 -134t-169.5 -48q-92 1 -168 50t-120 135t-44 189q0 100 46.5 181.5t124.5 126.5t171 43q91 -1 166.5 -46t120 -127t44.5 -186zM188 372q0 -14 0.5 -32t4 -51t10 -63.5t19 -64.5t29.5 -58t44 -40.5t59 -16.5q38 -1 68 19.5t48.5 54.5
t31 71t18.5 76t8 63t2 39t-0.5 33.5t-4.5 50t-10.5 60t-19.5 60t-29.5 54t-43 37t-58.5 15.5q-33 0 -60.5 -14.5t-45 -37.5t-31.5 -53.5t-21 -59.5t-11.5 -59.5t-5.5 -49.5t-1 -33z" />
    <glyph glyph-name="O" unicode="&#xd8;" horiz-adv-x="717" 
d="M695 366q0 -99 -46.5 -184t-125 -134t-169.5 -48q-92 1 -168 50t-120 135t-44 189q0 100 46.5 181.5t124.5 126.5t171 43q91 -1 166.5 -46t120 -127t44.5 -186zM188 372q0 -14 0.5 -32t4 -51t10 -63.5t19 -64.5t29.5 -58t44 -40.5t59 -16.5q38 -1 68 19.5t48.5 54.5
t31 71t18.5 76t8 63t2 39t-0.5 33.5t-4.5 50t-10.5 60t-19.5 60t-29.5 54t-43 37t-58.5 15.5q-33 0 -60.5 -14.5t-45 -37.5t-31.5 -53.5t-21 -59.5t-11.5 -59.5t-5.5 -49.5t-1 -33z" />
    <glyph glyph-name="O" unicode="&#xd6;" horiz-adv-x="717" 
d="M695 366q0 -99 -46.5 -184t-125 -134t-169.5 -48q-92 1 -168 50t-120 135t-44 189q0 100 46.5 181.5t124.5 126.5t171 43q91 -1 166.5 -46t120 -127t44.5 -186zM188 372q0 -14 0.5 -32t4 -51t10 -63.5t19 -64.5t29.5 -58t44 -40.5t59 -16.5q38 -1 68 19.5t48.5 54.5
t31 71t18.5 76t8 63t2 39t-0.5 33.5t-4.5 50t-10.5 60t-19.5 60t-29.5 54t-43 37t-58.5 15.5q-33 0 -60.5 -14.5t-45 -37.5t-31.5 -53.5t-21 -59.5t-11.5 -59.5t-5.5 -49.5t-1 -33z" />
    <glyph glyph-name="O" unicode="&#xd5;" horiz-adv-x="717" 
d="M695 366q0 -99 -46.5 -184t-125 -134t-169.5 -48q-92 1 -168 50t-120 135t-44 189q0 100 46.5 181.5t124.5 126.5t171 43q91 -1 166.5 -46t120 -127t44.5 -186zM188 372q0 -14 0.5 -32t4 -51t10 -63.5t19 -64.5t29.5 -58t44 -40.5t59 -16.5q38 -1 68 19.5t48.5 54.5
t31 71t18.5 76t8 63t2 39t-0.5 33.5t-4.5 50t-10.5 60t-19.5 60t-29.5 54t-43 37t-58.5 15.5q-33 0 -60.5 -14.5t-45 -37.5t-31.5 -53.5t-21 -59.5t-11.5 -59.5t-5.5 -49.5t-1 -33z" />
    <glyph glyph-name="O" unicode="&#xd4;" horiz-adv-x="717" 
d="M695 366q0 -99 -46.5 -184t-125 -134t-169.5 -48q-92 1 -168 50t-120 135t-44 189q0 100 46.5 181.5t124.5 126.5t171 43q91 -1 166.5 -46t120 -127t44.5 -186zM188 372q0 -14 0.5 -32t4 -51t10 -63.5t19 -64.5t29.5 -58t44 -40.5t59 -16.5q38 -1 68 19.5t48.5 54.5
t31 71t18.5 76t8 63t2 39t-0.5 33.5t-4.5 50t-10.5 60t-19.5 60t-29.5 54t-43 37t-58.5 15.5q-33 0 -60.5 -14.5t-45 -37.5t-31.5 -53.5t-21 -59.5t-11.5 -59.5t-5.5 -49.5t-1 -33z" />
    <glyph glyph-name="O" unicode="&#xd3;" horiz-adv-x="717" 
d="M695 366q0 -99 -46.5 -184t-125 -134t-169.5 -48q-92 1 -168 50t-120 135t-44 189q0 100 46.5 181.5t124.5 126.5t171 43q91 -1 166.5 -46t120 -127t44.5 -186zM188 372q0 -14 0.5 -32t4 -51t10 -63.5t19 -64.5t29.5 -58t44 -40.5t59 -16.5q38 -1 68 19.5t48.5 54.5
t31 71t18.5 76t8 63t2 39t-0.5 33.5t-4.5 50t-10.5 60t-19.5 60t-29.5 54t-43 37t-58.5 15.5q-33 0 -60.5 -14.5t-45 -37.5t-31.5 -53.5t-21 -59.5t-11.5 -59.5t-5.5 -49.5t-1 -33z" />
    <glyph glyph-name="O" unicode="&#xd2;" horiz-adv-x="717" 
d="M695 366q0 -99 -46.5 -184t-125 -134t-169.5 -48q-92 1 -168 50t-120 135t-44 189q0 100 46.5 181.5t124.5 126.5t171 43q91 -1 166.5 -46t120 -127t44.5 -186zM188 372q0 -14 0.5 -32t4 -51t10 -63.5t19 -64.5t29.5 -58t44 -40.5t59 -16.5q38 -1 68 19.5t48.5 54.5
t31 71t18.5 76t8 63t2 39t-0.5 33.5t-4.5 50t-10.5 60t-19.5 60t-29.5 54t-43 37t-58.5 15.5q-33 0 -60.5 -14.5t-45 -37.5t-31.5 -53.5t-21 -59.5t-11.5 -59.5t-5.5 -49.5t-1 -33z" />
    <glyph glyph-name="P" unicode="P" horiz-adv-x="618" 
d="M607 507q0 -49 -23 -88.5t-60 -64.5t-88 -42t-103 -23.5t-109 -6.5v-214q0 -12 20.5 -35.5t29.5 -23.5v-9h-255v9q8 0 27.5 23.5t19.5 35.5v588q0 13 -19.5 36t-27.5 23v9h255q54 0 101 -6t90.5 -22t74.5 -40t49 -62t18 -87zM239 684h-15v-366q43 0 78 9.5t58 25.5t40 35
t26 41.5t13 42t4 37.5q0 35 -9.5 64t-31 55.5t-63.5 41t-100 14.5z" />
    <glyph glyph-name="Q" unicode="Q" horiz-adv-x="717" 
d="M602 -188q-28 -1 -66 9t-80.5 28.5t-72.5 32.5t-66.5 33.5t-37.5 19.5q-67 34 -90 11q6 -2 12.5 -11t5.5 -21q0 -19 -18 -27t-34 6q-15 14 -17 35.5t13 41.5t45 26q57 13 77 16q-110 30 -180.5 129.5t-70.5 232.5q0 100 46.5 181.5t124.5 126.5t171 43q91 -1 166.5 -46
t120 -127t44.5 -186q0 -99 -46.5 -184t-125 -134t-169.5 -48h-14q-16 2 -83 -6q27 -5 77 -17.5t93.5 -23t91 -18.5t88 -6t67.5 17q25 14 29 26q1 3 5 3t4 -3q2 -8 0.5 -22.5t-3 -32t-9.5 -35.5t-19 -33.5t-31.5 -25.5t-47.5 -11zM188 372q0 -14 0.5 -32t4 -51t10 -63.5
t19 -64.5t29.5 -58t44 -40.5t59 -16.5q38 -1 68 19.5t48.5 54.5t31 71t18.5 76t8 63t2 39t-0.5 33.5t-4.5 50t-10.5 60t-19.5 60t-29.5 54t-43 37t-58.5 15.5q-33 0 -60.5 -14.5t-45 -37.5t-31.5 -53.5t-21 -59.5t-11.5 -59.5t-5.5 -49.5t-1 -33z" />
    <glyph glyph-name="R" unicode="R" horiz-adv-x="647" 
d="M607 519q0 -143 -182 -197l165 -272q10 -19 24.5 -30t24.5 -11v-9h-230v9q9 0 16 4t10.5 13t-4.5 24l-153 248q-17 -1 -54 -1v-229q0 -12 20.5 -35.5t29.5 -23.5v-9h-255v9q8 0 27.5 23.5t19.5 35.5v586q0 12 -19.5 35.5t-27.5 23.5v9h256q56 0 101.5 -5t89.5 -18.5
t74 -35.5t48.5 -58.5t18.5 -85.5zM224 333q51 0 91 13.5t63 33.5t38.5 46t21 49.5t5.5 45.5q0 161 -204 161h-15v-349z" />
    <glyph glyph-name="S" unicode="S" horiz-adv-x="552" 
d="M289 439q7 -3 19 -10q30 -17 45.5 -25.5t42.5 -26t42.5 -30t35 -32.5t30 -38t18 -41.5t7.5 -48.5q0 -48 -23.5 -85t-63.5 -58.5t-88 -32.5t-101 -11q-52 0 -109 14t-64 14q-10 0 -16.5 -7.5t-13.5 -25.5h-14l-4 192h18q14 -72 73.5 -113t140.5 -41q54 0 89 22.5t35 73.5
q0 18 -3.5 32.5t-8 25.5t-18 23.5t-23 21t-34 23t-41 23.5t-53.5 29q-8 4 -11 6q-166 90 -166 211q0 85 70.5 141.5t181.5 56.5q37 0 71 -10.5t53.5 -22.5t35 -22.5t19.5 -10.5q5 0 8 4t9 16h13v-177h-17q0 42 -20.5 82.5t-64 70t-100.5 29.5q-25 0 -51.5 -6t-50 -17
t-38.5 -29t-15 -40q0 -12 3 -23t9 -21t12.5 -18.5t17.5 -17.5t19 -15t22.5 -14.5t23 -13.5t25 -14t23.5 -13z" />
    <glyph glyph-name="T" unicode="T" horiz-adv-x="635" 
d="M238 671l-12 0.5t-20.5 0.5t-24.5 -1.5t-28.5 -4t-29 -8t-29 -13t-25.5 -19.5t-21 -26.5t-13.5 -35.5t-5.5 -46q-2 -4 -8.5 -5t-12.5 0.5t-6 4.5l28 204h574l28 -204q0 -3 -6 -4.5t-12.5 -0.5t-8.5 5q-27 158 -203 154q-4 -1 -6 -1v-603q0 -12 20.5 -35.5t29.5 -23.5v-9
h-255v9q8 0 27.5 23.5t19.5 35.5v603z" />
    <glyph glyph-name="U" unicode="U" horiz-adv-x="590" 
d="M541 189q0 -89 -64.5 -139t-165.5 -50q-106 0 -182.5 53t-76.5 136v463q0 12 -19.5 35t-27.5 23v10h255v-10q-9 0 -29.5 -23t-20.5 -35v-494q0 -53 34.5 -83t105.5 -30q65 0 110.5 45.5t45.5 89.5v489q0 13 -17 27t-30 14v10h120v-10q-5 0 -14 -6t-16.5 -16t-7.5 -19
v-480z" />
    <glyph glyph-name="U" unicode="&#xdc;" horiz-adv-x="590" 
d="M541 189q0 -89 -64.5 -139t-165.5 -50q-106 0 -182.5 53t-76.5 136v463q0 12 -19.5 35t-27.5 23v10h255v-10q-9 0 -29.5 -23t-20.5 -35v-494q0 -53 34.5 -83t105.5 -30q65 0 110.5 45.5t45.5 89.5v489q0 13 -17 27t-30 14v10h120v-10q-5 0 -14 -6t-16.5 -16t-7.5 -19
v-480z" />
    <glyph glyph-name="U" unicode="&#xdb;" horiz-adv-x="590" 
d="M541 189q0 -89 -64.5 -139t-165.5 -50q-106 0 -182.5 53t-76.5 136v463q0 12 -19.5 35t-27.5 23v10h255v-10q-9 0 -29.5 -23t-20.5 -35v-494q0 -53 34.5 -83t105.5 -30q65 0 110.5 45.5t45.5 89.5v489q0 13 -17 27t-30 14v10h120v-10q-5 0 -14 -6t-16.5 -16t-7.5 -19
v-480z" />
    <glyph glyph-name="U" unicode="&#xda;" horiz-adv-x="590" 
d="M541 189q0 -89 -64.5 -139t-165.5 -50q-106 0 -182.5 53t-76.5 136v463q0 12 -19.5 35t-27.5 23v10h255v-10q-9 0 -29.5 -23t-20.5 -35v-494q0 -53 34.5 -83t105.5 -30q65 0 110.5 45.5t45.5 89.5v489q0 13 -17 27t-30 14v10h120v-10q-5 0 -14 -6t-16.5 -16t-7.5 -19
v-480z" />
    <glyph glyph-name="U" unicode="&#xd9;" horiz-adv-x="590" 
d="M541 189q0 -89 -64.5 -139t-165.5 -50q-106 0 -182.5 53t-76.5 136v463q0 12 -19.5 35t-27.5 23v10h255v-10q-9 0 -29.5 -23t-20.5 -35v-494q0 -53 34.5 -83t105.5 -30q65 0 110.5 45.5t45.5 89.5v489q0 13 -17 27t-30 14v10h120v-10q-5 0 -14 -6t-16.5 -16t-7.5 -19
v-480z" />
    <glyph glyph-name="V" unicode="V" horiz-adv-x="531" 
d="M515 671l-189 -639q-8 -29 -8 -32h-75l-219 654q-4 12 -14 26t-20 23.5t-15 9.5v9h255v-9q-11 0 -32.5 -21t-14.5 -38q103 -345 150 -479l147 496q4 19 -11 30.5t-27 11.5v9h120v-9q-7 0 -17 -6.5t-18.5 -16t-11.5 -19.5z" />
    <glyph glyph-name="W" unicode="W" horiz-adv-x="866" 
d="M765 713v9h120v-9q-7 0 -17 -6.5t-18.5 -16t-11.5 -19.5l-189 -639q-4 -14 -6 -22t-2 -10h-75l-129 387l-106 -355q-8 -29 -8 -32h-75l-219 654q-7 18 -24 38.5t-25 20.5v9h255v-9q-11 0 -32.5 -21t-14.5 -38q103 -345 150 -479l80 269l-71 210q-7 18 -24 38.5t-25 20.5
v9h269v-9q-8 0 -17.5 -6.5t-18 -16t-11.5 -19.5l-9 -32q91 -304 145 -464l147 496q5 19 -10.5 30.5t-27.5 11.5z" />
    <glyph glyph-name="X" unicode="X" horiz-adv-x="551" 
d="M505 68q11 -20 26.5 -39.5t22.5 -19.5v-9h-254v9q15 0 37.5 17t9.5 42l-107 196l-127 -214q-21 -41 15 -41v-9h-97v9q25 0 47 41l144 246l-195 358q-10 20 -26 39.5t-23 19.5v9h255v-9q-16 0 -38.5 -17t-8.5 -42l120 -220l139 237q21 42 -15 42v9h97v-9q-9 2 -22.5 -10.5
t-24.5 -31.5l-158 -267z" />
    <glyph glyph-name="Y" unicode="Y" horiz-adv-x="487" 
d="M426 713v9h98v-9q-12 0 -26 -12t-21 -30l-159 -306v-297q39 -59 49 -59v-9h-254v9q7 0 27 23.5t20 35.5v276l-137 310q-11 22 -26.5 40.5t-23.5 18.5v9h230v-9q-13 0 -21.5 -18.5t0.5 -40.5l117 -263l142 280q22 42 -15 42z" />
    <glyph glyph-name="Y" unicode="&#x178;" horiz-adv-x="487" 
d="M426 713v9h98v-9q-12 0 -26 -12t-21 -30l-159 -306v-297q39 -59 49 -59v-9h-254v9q7 0 27 23.5t20 35.5v276l-137 310q-11 22 -26.5 40.5t-23.5 18.5v9h230v-9q-13 0 -21.5 -18.5t0.5 -40.5l117 -263l142 280q22 42 -15 42z" />
    <glyph glyph-name="Y" unicode="&#xdd;" horiz-adv-x="487" 
d="M426 713v9h98v-9q-12 0 -26 -12t-21 -30l-159 -306v-297q39 -59 49 -59v-9h-254v9q7 0 27 23.5t20 35.5v276l-137 310q-11 22 -26.5 40.5t-23.5 18.5v9h230v-9q-13 0 -21.5 -18.5t0.5 -40.5l117 -263l142 280q22 42 -15 42z" />
    <glyph glyph-name="Z" unicode="Z" horiz-adv-x="536" 
d="M493 191q2 4 8.5 5t12.5 -0.5t6 -4.5l-28 -191h-485l337 671q-46 0 -74.5 -0.5t-58 -3t-46 -6t-34 -11t-26 -17.5t-17.5 -25t-14 -33.5t-9 -43.5q-2 -4 -8.5 -5t-12.5 0.5t-6 4.5l28 191h462l-337 -672q62 0 98 1.5t72.5 6.5t55 13.5t36 25t26 39t14.5 55.5z" />
    <glyph glyph-name="a" unicode="a" horiz-adv-x="487" 
d="M473 73q5 0 5 -5q-5 -31 -45 -49.5t-83 -18.5q-30 0 -54.5 16t-35.5 40q-110 -77 -183 -45q-50 21 -54 76q-4 65 59 115q62 50 168 59v115q0 18 -5.5 30.5t-15.5 19t-24 6.5q-13 0 -23 -10.5t-13.5 -24.5t1.5 -30t19 -25q6 -37 -21.5 -59.5t-60.5 -16.5q-22 4 -37 17.5
t-20.5 29t-5.5 31.5q0 69 74 103q75 34 160 9q94 -27 121 -112q10 -30 10 -64l1 -194q0 -37 22 -40q12 -1 22 5t14 17q1 5 5 5zM250 240q-66 -11 -92 -64q-21 -43 4 -72q27 -33 90 -13z" />
    <glyph glyph-name="a" unicode="&#xe5;" horiz-adv-x="487" 
d="M473 73q5 0 5 -5q-5 -31 -45 -49.5t-83 -18.5q-30 0 -54.5 16t-35.5 40q-110 -77 -183 -45q-50 21 -54 76q-4 65 59 115q62 50 168 59v115q0 18 -5.5 30.5t-15.5 19t-24 6.5q-13 0 -23 -10.5t-13.5 -24.5t1.5 -30t19 -25q6 -37 -21.5 -59.5t-60.5 -16.5q-22 4 -37 17.5
t-20.5 29t-5.5 31.5q0 69 74 103q75 34 160 9q94 -27 121 -112q10 -30 10 -64l1 -194q0 -37 22 -40q12 -1 22 5t14 17q1 5 5 5zM250 240q-66 -11 -92 -64q-21 -43 4 -72q27 -33 90 -13z" />
    <glyph glyph-name="a" unicode="&#xe4;" horiz-adv-x="487" 
d="M473 73q5 0 5 -5q-5 -31 -45 -49.5t-83 -18.5q-30 0 -54.5 16t-35.5 40q-110 -77 -183 -45q-50 21 -54 76q-4 65 59 115q62 50 168 59v115q0 18 -5.5 30.5t-15.5 19t-24 6.5q-13 0 -23 -10.5t-13.5 -24.5t1.5 -30t19 -25q6 -37 -21.5 -59.5t-60.5 -16.5q-22 4 -37 17.5
t-20.5 29t-5.5 31.5q0 69 74 103q75 34 160 9q94 -27 121 -112q10 -30 10 -64l1 -194q0 -37 22 -40q12 -1 22 5t14 17q1 5 5 5zM250 240q-66 -11 -92 -64q-21 -43 4 -72q27 -33 90 -13z" />
    <glyph glyph-name="a" unicode="&#xe3;" horiz-adv-x="487" 
d="M473 73q5 0 5 -5q-5 -31 -45 -49.5t-83 -18.5q-30 0 -54.5 16t-35.5 40q-110 -77 -183 -45q-50 21 -54 76q-4 65 59 115q62 50 168 59v115q0 18 -5.5 30.5t-15.5 19t-24 6.5q-13 0 -23 -10.5t-13.5 -24.5t1.5 -30t19 -25q6 -37 -21.5 -59.5t-60.5 -16.5q-22 4 -37 17.5
t-20.5 29t-5.5 31.5q0 69 74 103q75 34 160 9q94 -27 121 -112q10 -30 10 -64l1 -194q0 -37 22 -40q12 -1 22 5t14 17q1 5 5 5zM250 240q-66 -11 -92 -64q-21 -43 4 -72q27 -33 90 -13z" />
    <glyph glyph-name="a" unicode="&#xe2;" horiz-adv-x="487" 
d="M473 73q5 0 5 -5q-5 -31 -45 -49.5t-83 -18.5q-30 0 -54.5 16t-35.5 40q-110 -77 -183 -45q-50 21 -54 76q-4 65 59 115q62 50 168 59v115q0 18 -5.5 30.5t-15.5 19t-24 6.5q-13 0 -23 -10.5t-13.5 -24.5t1.5 -30t19 -25q6 -37 -21.5 -59.5t-60.5 -16.5q-22 4 -37 17.5
t-20.5 29t-5.5 31.5q0 69 74 103q75 34 160 9q94 -27 121 -112q10 -30 10 -64l1 -194q0 -37 22 -40q12 -1 22 5t14 17q1 5 5 5zM250 240q-66 -11 -92 -64q-21 -43 4 -72q27 -33 90 -13z" />
    <glyph glyph-name="a" unicode="&#xe1;" horiz-adv-x="487" 
d="M473 73q5 0 5 -5q-5 -31 -45 -49.5t-83 -18.5q-30 0 -54.5 16t-35.5 40q-110 -77 -183 -45q-50 21 -54 76q-4 65 59 115q62 50 168 59v115q0 18 -5.5 30.5t-15.5 19t-24 6.5q-13 0 -23 -10.5t-13.5 -24.5t1.5 -30t19 -25q6 -37 -21.5 -59.5t-60.5 -16.5q-22 4 -37 17.5
t-20.5 29t-5.5 31.5q0 69 74 103q75 34 160 9q94 -27 121 -112q10 -30 10 -64l1 -194q0 -37 22 -40q12 -1 22 5t14 17q1 5 5 5zM250 240q-66 -11 -92 -64q-21 -43 4 -72q27 -33 90 -13z" />
    <glyph glyph-name="a" unicode="&#xe0;" horiz-adv-x="487" 
d="M473 73q5 0 5 -5q-5 -31 -45 -49.5t-83 -18.5q-30 0 -54.5 16t-35.5 40q-110 -77 -183 -45q-50 21 -54 76q-4 65 59 115q62 50 168 59v115q0 18 -5.5 30.5t-15.5 19t-24 6.5q-13 0 -23 -10.5t-13.5 -24.5t1.5 -30t19 -25q6 -37 -21.5 -59.5t-60.5 -16.5q-22 4 -37 17.5
t-20.5 29t-5.5 31.5q0 69 74 103q75 34 160 9q94 -27 121 -112q10 -30 10 -64l1 -194q0 -37 22 -40q12 -1 22 5t14 17q1 5 5 5zM250 240q-66 -11 -92 -64q-21 -43 4 -72q27 -33 90 -13z" />
    <glyph glyph-name="b" unicode="b" horiz-adv-x="527" 
d="M309 483q38 0 71 -14t60.5 -41.5t43.5 -75.5t16 -110q0 -107 -57.5 -174t-133.5 -68h-1q-37 0 -69 6t-50 14t-41 14t-45 6q-14 0 -24 -6t-15 -12.5t-17 -24.5q-3 -5 -3 0v620q0 9 -4.5 17t-9.5 12t-12 8.5l-7 4.5q-10 7 0 9q106 4 184 56q7 4 7 -5v-27l3 -256
q45 47 104 47zM354 242q4 59 1 105.5t-17 76.5t-36 33q-34 3 -61 -53.5t-35 -143.5v-3l1 -118q5 -47 19 -75.5t35 -31.5q31 -2 58 60.5t35 149.5z" />
    <glyph glyph-name="c" unicode="c" horiz-adv-x="436" 
d="M402 153q2 3 5.5 4t6 -0.5t2.5 -3.5q-12 -67 -65 -109t-122 -42q-82 0 -143.5 66t-61.5 161q0 113 58.5 177t144.5 64q46 0 85 -22t60.5 -57t21.5 -72q0 -29 -19.5 -50t-53.5 -15q-19 3 -33.5 14.5t-19.5 24.5t-6.5 25.5t4.5 18.5q16 26 12 48.5t-23.5 36.5t-42.5 12
q-22 -3 -39 -33t-22 -74.5t4 -97.5q14 -65 53 -99.5t92 -37.5q30 -2 58.5 14.5t43.5 46.5z" />
    <glyph glyph-name="c" unicode="&#xe7;" horiz-adv-x="436" 
d="M402 153q2 3 5.5 4t6 -0.5t2.5 -3.5q-12 -67 -65 -109t-122 -42q-82 0 -143.5 66t-61.5 161q0 113 58.5 177t144.5 64q46 0 85 -22t60.5 -57t21.5 -72q0 -29 -19.5 -50t-53.5 -15q-19 3 -33.5 14.5t-19.5 24.5t-6.5 25.5t4.5 18.5q16 26 12 48.5t-23.5 36.5t-42.5 12
q-22 -3 -39 -33t-22 -74.5t4 -97.5q14 -65 53 -99.5t92 -37.5q30 -2 58.5 14.5t43.5 46.5z" />
    <glyph glyph-name="d" unicode="d" horiz-adv-x="537" 
d="M475 51q0 -12 19.5 -26.5t27.5 -14.5v-10h-205v50q-47 -50 -107 -50q-76 0 -129.5 64.5t-53.5 176.5q0 114 53 178t130 64q60 0 107 -49v183q0 7 -2.5 13.5t-7.5 11t-9 8t-8.5 6t-5.5 3.5q-10 7 0 9q106 4 184 56q7 4 7 -5v-668zM317 142v225q-19 63 -54 64
q-32 2 -60.5 -55.5t-32.5 -136.5q-3 -83 18 -141t55 -60q24 -1 43.5 27.5t30.5 76.5z" />
    <glyph glyph-name="e" unicode="e" horiz-adv-x="445" 
d="M422 247v-8h-269l2 -11q14 -63 53.5 -98.5t91.5 -38.5q29 -2 53.5 14t39.5 47q2 7 11 4q2 -2 3 -4q-13 -68 -61.5 -110t-116.5 -42q-82 0 -143.5 66.5t-61.5 161.5q0 113 58.5 177t144.5 64q84 0 139.5 -62t55.5 -160zM252 269q26 0 38.5 17t12.5 40q0 27 -29 66.5
t-62 39.5q-37 0 -54.5 -51t-7.5 -112h102z" />
    <glyph glyph-name="e" unicode="&#xeb;" horiz-adv-x="445" 
d="M422 247v-8h-269l2 -11q14 -63 53.5 -98.5t91.5 -38.5q29 -2 53.5 14t39.5 47q2 7 11 4q2 -2 3 -4q-13 -68 -61.5 -110t-116.5 -42q-82 0 -143.5 66.5t-61.5 161.5q0 113 58.5 177t144.5 64q84 0 139.5 -62t55.5 -160zM252 269q26 0 38.5 17t12.5 40q0 27 -29 66.5
t-62 39.5q-37 0 -54.5 -51t-7.5 -112h102z" />
    <glyph glyph-name="e" unicode="&#xea;" horiz-adv-x="445" 
d="M422 247v-8h-269l2 -11q14 -63 53.5 -98.5t91.5 -38.5q29 -2 53.5 14t39.5 47q2 7 11 4q2 -2 3 -4q-13 -68 -61.5 -110t-116.5 -42q-82 0 -143.5 66.5t-61.5 161.5q0 113 58.5 177t144.5 64q84 0 139.5 -62t55.5 -160zM252 269q26 0 38.5 17t12.5 40q0 27 -29 66.5
t-62 39.5q-37 0 -54.5 -51t-7.5 -112h102z" />
    <glyph glyph-name="e" unicode="&#xe9;" horiz-adv-x="445" 
d="M422 247v-8h-269l2 -11q14 -63 53.5 -98.5t91.5 -38.5q29 -2 53.5 14t39.5 47q2 7 11 4q2 -2 3 -4q-13 -68 -61.5 -110t-116.5 -42q-82 0 -143.5 66.5t-61.5 161.5q0 113 58.5 177t144.5 64q84 0 139.5 -62t55.5 -160zM252 269q26 0 38.5 17t12.5 40q0 27 -29 66.5
t-62 39.5q-37 0 -54.5 -51t-7.5 -112h102z" />
    <glyph glyph-name="e" unicode="&#xe8;" horiz-adv-x="445" 
d="M422 247v-8h-269l2 -11q14 -63 53.5 -98.5t91.5 -38.5q29 -2 53.5 14t39.5 47q2 7 11 4q2 -2 3 -4q-13 -68 -61.5 -110t-116.5 -42q-82 0 -143.5 66.5t-61.5 161.5q0 113 58.5 177t144.5 64q84 0 139.5 -62t55.5 -160zM252 269q26 0 38.5 17t12.5 40q0 27 -29 66.5
t-62 39.5q-37 0 -54.5 -51t-7.5 -112h102z" />
    <glyph glyph-name="f" unicode="f" horiz-adv-x="366" 
d="M79 503q0 157 106 227q79 51 171 32q83 -18 113 -81q12 -26 13 -56q0 -39 -17 -70t-50 -37q-34 -5 -58 11.5t-24 50.5q24 17 28.5 52t-12.5 64t-48 29q-29 0 -46.5 -24.5t-17.5 -54.5v-176h121q4 0 6 -7t0.5 -14t-6.5 -7h-121l-1 -391q0 -12 20 -26.5t30 -14.5v-10h-255
v10q9 0 28 14.5t19 26.5l1 391h-63q-5 0 -6.5 7t0.5 14t6 7h63v33z" />
    <glyph glyph-name="g" unicode="g" horiz-adv-x="466" 
d="M177 115q17 -4 51.5 -9.5t60.5 -9.5t57.5 -15t52.5 -25.5t35 -40.5t14 -62q0 -78 -54.5 -132.5t-143.5 -54.5q-100 0 -156 44.5t-56 100.5q-1 28 17.5 50.5t57.5 20.5q25 -2 43 -20.5t18 -36.5q-25 -32 -19 -59.5t35 -46.5t67 -19q46 0 79.5 21t33.5 57q0 25 -15 42
t-42.5 26.5t-54 15t-59.5 11t-49 10.5q-42 11 -66 37t-27.5 54t7.5 55t34 42l13 -7q-27 15 -46.5 36.5t-30.5 48t-11 54.5q0 72 60.5 122t147.5 50q21 0 42 -4q18 40 53 58.5t65.5 12t40.5 -32.5q13 -37 -17 -65q-25 -23 -42 -10q-5 3 -7 10q-7 31 -32 39.5t-43 -15.5
q65 -16 106.5 -61.5t41.5 -103.5q0 -46 -28 -85.5t-76 -62t-104 -22.5q-63 0 -113 27q-14 -17 -0.5 -25t59.5 -20zM230.5 443q-28.5 0 -48.5 -40.5t-20 -99t20 -98.5t48.5 -40t49 40t20.5 98.5t-20.5 99t-49 40.5z" />
    <glyph glyph-name="h" unicode="h" horiz-adv-x="578" 
d="M516 51q0 -12 20 -26.5t30 -14.5v-10h-255v10q9 0 28 14.5t19 26.5v273q0 45 -15.5 64.5t-38 14t-45.5 -21.5t-40 -38v-292q0 -12 20 -26.5t30 -14.5v-10h-255v10q9 0 28 14.5t19 26.5v559q0 9 -4.5 17t-9.5 11.5t-12 8.5l-7 5q-10 7 0 9q113 9 184 55q7 5 7 -4v-330
q79 76 147.5 96.5t109 -19.5t40.5 -135v-273z" />
    <glyph glyph-name="i" unicode="i" horiz-adv-x="285" 
d="M130 497q-38 0 -65 26.5t-27 64t27 64.5t64.5 27t64 -27t26.5 -65t-26 -64t-64 -26zM222 51q0 -12 20 -26.5t30 -14.5v-10h-255v10q5 0 16 6.5t21 16.5t10 18v331q0 9 -4.5 17t-9.5 12t-12 8.5l-7 4.5q-10 8 0 10q113 8 184 55q7 4 7 -5v-27v-406z" />
    <glyph glyph-name="i" unicode="&#xef;" horiz-adv-x="285" 
d="M130 497q-38 0 -65 26.5t-27 64t27 64.5t64.5 27t64 -27t26.5 -65t-26 -64t-64 -26zM222 51q0 -12 20 -26.5t30 -14.5v-10h-255v10q5 0 16 6.5t21 16.5t10 18v331q0 9 -4.5 17t-9.5 12t-12 8.5l-7 4.5q-10 8 0 10q113 8 184 55q7 4 7 -5v-27v-406z" />
    <glyph glyph-name="i" unicode="&#xee;" horiz-adv-x="285" 
d="M130 497q-38 0 -65 26.5t-27 64t27 64.5t64.5 27t64 -27t26.5 -65t-26 -64t-64 -26zM222 51q0 -12 20 -26.5t30 -14.5v-10h-255v10q5 0 16 6.5t21 16.5t10 18v331q0 9 -4.5 17t-9.5 12t-12 8.5l-7 4.5q-10 8 0 10q113 8 184 55q7 4 7 -5v-27v-406z" />
    <glyph glyph-name="i" unicode="&#xed;" horiz-adv-x="285" 
d="M130 497q-38 0 -65 26.5t-27 64t27 64.5t64.5 27t64 -27t26.5 -65t-26 -64t-64 -26zM222 51q0 -12 20 -26.5t30 -14.5v-10h-255v10q5 0 16 6.5t21 16.5t10 18v331q0 9 -4.5 17t-9.5 12t-12 8.5l-7 4.5q-10 8 0 10q113 8 184 55q7 4 7 -5v-27v-406z" />
    <glyph glyph-name="i" unicode="&#xec;" horiz-adv-x="285" 
d="M130 497q-38 0 -65 26.5t-27 64t27 64.5t64.5 27t64 -27t26.5 -65t-26 -64t-64 -26zM222 51q0 -12 20 -26.5t30 -14.5v-10h-255v10q5 0 16 6.5t21 16.5t10 18v331q0 9 -4.5 17t-9.5 12t-12 8.5l-7 4.5q-10 8 0 10q113 8 184 55q7 4 7 -5v-27v-406z" />
    <glyph glyph-name="j" unicode="j" horiz-adv-x="259" 
d="M207 489q7 4 7 -5v-27v-457q0 -70 -67.5 -123.5t-162.5 -53.5q-2 0 -2 9t2 11q34 28 53 69t19 88v382q0 9 -4.5 17t-9.5 12t-12 8.5l-7 4.5q-10 8 0 10q113 8 184 55zM121.5 497q-37.5 0 -64.5 26.5t-27 64t27 64.5t64.5 27t64 -27t26.5 -65t-26.5 -64t-64 -26z" />
    <glyph glyph-name="k" unicode="k" horiz-adv-x="573" 
d="M509 68q51 -58 64 -58v-10h-226v10q6 0 12 8t5.5 22.5t-13.5 27.5l-116 164l-16 -20v-144q0 -12 20.5 -35t29.5 -23v-10h-255v10q8 0 27.5 23t19.5 35v558q0 9 -4.5 17t-9.5 12t-12 8.5l-7 4.5q-10 8 0 10q113 8 184 55q7 5 7 -5v-471l87 113q21 28 17.5 48t-14.5 31.5
t-18 11.5v9h177v-9q-10 0 -31 -12.5t-47 -33.5t-48 -45l-32 -41z" />
    <glyph glyph-name="l" unicode="l" horiz-adv-x="282" 
d="M219 51q0 -12 20 -26.5t30 -14.5v-10h-255v10q9 0 28 14.5t19 26.5v566q0 9 -4.5 17t-9.5 12t-12 8.5l-7 4.5q-10 7 0 9q113 9 184 56q7 4 7 -5v-27v-641z" />
    <glyph glyph-name="m" unicode="m" horiz-adv-x="877" 
d="M815 51q0 -12 20 -26.5t30 -14.5v-10h-255v10q9 0 28 14.5t19 26.5v273q0 45 -15.5 64t-38 14t-45 -20.5t-39.5 -37.5v-293q0 -12 20 -26.5t30 -14.5v-10h-255v10q9 0 28 14.5t19 26.5v273q0 45 -15.5 64.5t-38 14t-45.5 -21.5t-40 -38v-292q0 -12 20 -26.5t30 -14.5v-10
h-255v10q5 0 16 6.5t21 16.5t10 18v331q0 9 -4.5 17t-9.5 12t-12 8.5l-7 4.5q-10 8 0 10q113 8 184 55q7 4 7 -5v-27v-75q71 68 133.5 92t105 -0.5t54.5 -93.5q79 76 148 97t110.5 -18.5t41.5 -134.5v-273z" />
    <glyph glyph-name="n" unicode="n" horiz-adv-x="581" 
d="M519 51q0 -12 20 -26.5t30 -14.5v-10h-255v10q9 0 28 14.5t19 26.5v273q0 45 -15.5 64.5t-38 14t-45.5 -21.5t-40 -38v-292q0 -12 20 -26.5t30 -14.5v-10h-255v10q9 0 28 14.5t19 26.5v331q0 9 -4.5 17t-9.5 12t-12 8.5l-7 4.5q-10 8 0 10q113 8 184 55q7 4 7 -5v-27v-75
q79 76 147.5 96.5t109 -19.5t40.5 -135v-273z" />
    <glyph glyph-name="n" unicode="&#xf1;" horiz-adv-x="581" 
d="M519 51q0 -12 20 -26.5t30 -14.5v-10h-255v10q9 0 28 14.5t19 26.5v273q0 45 -15.5 64.5t-38 14t-45.5 -21.5t-40 -38v-292q0 -12 20 -26.5t30 -14.5v-10h-255v10q9 0 28 14.5t19 26.5v331q0 9 -4.5 17t-9.5 12t-12 8.5l-7 4.5q-10 8 0 10q113 8 184 55q7 4 7 -5v-27v-75
q79 76 147.5 96.5t109 -19.5t40.5 -135v-273z" />
    <glyph glyph-name="o" unicode="o" horiz-adv-x="516" 
d="M257 485q98 0 167 -70.5t69 -171t-69 -171t-167 -70.5q-97 0 -166 70.5t-69 170.5t69 171t166 71zM257 32q36 0 62 62t26 149t-26 149.5t-62 62.5q-23 0 -43 -28.5t-32 -77.5t-12 -106q0 -86 25.5 -148.5t61.5 -62.5z" />
    <glyph glyph-name="o" unicode="&#xf8;" horiz-adv-x="516" 
d="M257 485q98 0 167 -70.5t69 -171t-69 -171t-167 -70.5q-97 0 -166 70.5t-69 170.5t69 171t166 71zM257 32q36 0 62 62t26 149t-26 149.5t-62 62.5q-23 0 -43 -28.5t-32 -77.5t-12 -106q0 -86 25.5 -148.5t61.5 -62.5z" />
    <glyph glyph-name="o" unicode="&#xf6;" horiz-adv-x="516" 
d="M257 485q98 0 167 -70.5t69 -171t-69 -171t-167 -70.5q-97 0 -166 70.5t-69 170.5t69 171t166 71zM257 32q36 0 62 62t26 149t-26 149.5t-62 62.5q-23 0 -43 -28.5t-32 -77.5t-12 -106q0 -86 25.5 -148.5t61.5 -62.5z" />
    <glyph glyph-name="o" unicode="&#xf5;" horiz-adv-x="516" 
d="M257 485q98 0 167 -70.5t69 -171t-69 -171t-167 -70.5q-97 0 -166 70.5t-69 170.5t69 171t166 71zM257 32q36 0 62 62t26 149t-26 149.5t-62 62.5q-23 0 -43 -28.5t-32 -77.5t-12 -106q0 -86 25.5 -148.5t61.5 -62.5z" />
    <glyph glyph-name="o" unicode="&#xf4;" horiz-adv-x="516" 
d="M257 485q98 0 167 -70.5t69 -171t-69 -171t-167 -70.5q-97 0 -166 70.5t-69 170.5t69 171t166 71zM257 32q36 0 62 62t26 149t-26 149.5t-62 62.5q-23 0 -43 -28.5t-32 -77.5t-12 -106q0 -86 25.5 -148.5t61.5 -62.5z" />
    <glyph glyph-name="o" unicode="&#xf3;" horiz-adv-x="516" 
d="M257 485q98 0 167 -70.5t69 -171t-69 -171t-167 -70.5q-97 0 -166 70.5t-69 170.5t69 171t166 71zM257 32q36 0 62 62t26 149t-26 149.5t-62 62.5q-23 0 -43 -28.5t-32 -77.5t-12 -106q0 -86 25.5 -148.5t61.5 -62.5z" />
    <glyph glyph-name="o" unicode="&#xf2;" horiz-adv-x="516" 
d="M257 485q98 0 167 -70.5t69 -171t-69 -171t-167 -70.5q-97 0 -166 70.5t-69 170.5t69 171t166 71zM257 32q36 0 62 62t26 149t-26 149.5t-62 62.5q-23 0 -43 -28.5t-32 -77.5t-12 -106q0 -86 25.5 -148.5t61.5 -62.5z" />
    <glyph glyph-name="p" unicode="p" horiz-adv-x="532" 
d="M321 486q77 0 130 -64t53 -176q0 -114 -53 -178t-130 -64q-59 0 -107 49v-237q0 -12 20 -26.5t30 -14.5v-9h-255v9q9 0 28 14.5t19 26.5v566q0 9 -4.5 17t-9.5 12t-12 8.5l-7 4.5q-10 8 0 10q113 8 184 55q7 4 7 -5v-27v-20q48 49 107 49zM361 248q2 54 -6.5 100t-26 73
t-40.5 28q-24 1 -43.5 -27.5t-30.5 -77.5v-224q20 -63 54 -64q32 -2 60 55t33 137z" />
    <glyph glyph-name="q" unicode="q" horiz-adv-x="527" 
d="M516 -176q9 -7 0 -9q-107 -4 -185 -55q-7 -5 -7 4v27l-2 256q-45 -47 -105 -47q-37 0 -70.5 14t-61 41.5t-43.5 75.5t-16 110q0 107 57.5 174t133.5 68h2q47 0 83.5 -10t65.5 -20t56 -10q13 0 23.5 6.5t15 12.5t16.5 24q4 6 4 0v-619q0 -9 4.5 -17t9 -12t11.5 -8.5
t8 -5.5zM321 223v3l-2 120q-5 46 -19 74.5t-35 30.5q-31 3 -57.5 -59.5t-34.5 -150.5q-8 -89 5.5 -150t45.5 -65q35 -3 62 53.5t35 143.5z" />
    <glyph glyph-name="r" unicode="r" horiz-adv-x="440" 
d="M427 438q17 -45 -20 -82q-28 -28 -52 -18q-10 5 -14 16q-6 28 -28.5 42t-48.5 7.5t-42 -34.5v-318q0 -12 20 -26.5t30 -14.5v-10h-255v10q5 0 16 6.5t21 16.5t10 18v331q0 9 -4.5 17t-9.5 12t-12 8.5l-7 4.5q-10 8 0 10q113 8 184 55q7 4 7 -5v-27v-50q28 44 72 65
t81.5 11.5t51.5 -45.5z" />
    <glyph glyph-name="s" unicode="s" horiz-adv-x="394" 
d="M231 301l12 -9q22 -14 32.5 -22t28 -22.5t26.5 -26.5t19 -28.5t14 -35.5t4 -42q0 -32 -16 -55.5t-43.5 -36t-59 -18.5t-69.5 -6q-35 0 -69 9.5t-37 9.5q-8 0 -12.5 -5t-9.5 -17h-10l-2 119h12q9 -46 44 -67t79 -21q34 0 59.5 18.5t25.5 44.5q0 8 -3 16.5t-10.5 16t-15 14
t-20 14t-21.5 12.5t-24.5 13.5t-23.5 12.5q-54 31 -83.5 65t-29.5 88q0 59 47.5 97t123.5 38q31 0 58.5 -11t43.5 -22.5t19 -11.5t5 1t3.5 3t2.5 4l3 6h7v-120h-10q0 43 -39 80.5t-90 37.5q-22 0 -39 -5t-27.5 -16.5t-10.5 -26.5q1 -14 12 -27.5t22.5 -22t36 -23.5t35.5 -22
z" />
    <glyph glyph-name="t" unicode="t" horiz-adv-x="326" 
d="M309 470q4 0 5.5 -7t0 -14t-5.5 -7h-87l1 -372q0 -21 11 -31.5t27 -8.5q29 6 40 37q2 5 6 5q5 0 5 -5q-5 -42 -41.5 -62.5t-90.5 -20.5q-42 0 -78.5 27.5t-36.5 58.5l-1 352q0 6 -2 10.5t-4 7t-6.5 4t-7 2t-7.5 0.5h-6q-20 1 -19 9t19 18q1 1 13.5 8t25.5 14t32.5 20.5
t37.5 29t38.5 38t36.5 48.5q3 4 6 -1l1 -4v-156h87z" />
    <glyph glyph-name="u" unicode="u" horiz-adv-x="566" 
d="M542 66q10 -7 0 -9q-113 -8 -184 -55q-7 -5 -7 4v102q-59 -56 -113.5 -82t-95 -19.5t-64.5 47.5t-24 112v216q0 9 -4.5 17t-9.5 12t-12 8.5l-7 4.5q-10 8 0 10q115 8 184 55q7 4 7 -5v-318q0 -45 15.5 -64.5t38 -13.5t45.5 22t40 37v235q0 9 -4.5 17t-9.5 12t-12 8.5
l-7 4.5q-10 8 0 10q115 8 184 55q7 4 7 -5v-376q0 -9 5 -17t9.5 -11.5t11.5 -8.5z" />
    <glyph glyph-name="u" unicode="&#xfc;" horiz-adv-x="566" 
d="M542 66q10 -7 0 -9q-113 -8 -184 -55q-7 -5 -7 4v102q-59 -56 -113.5 -82t-95 -19.5t-64.5 47.5t-24 112v216q0 9 -4.5 17t-9.5 12t-12 8.5l-7 4.5q-10 8 0 10q115 8 184 55q7 4 7 -5v-318q0 -45 15.5 -64.5t38 -13.5t45.5 22t40 37v235q0 9 -4.5 17t-9.5 12t-12 8.5
l-7 4.5q-10 8 0 10q115 8 184 55q7 4 7 -5v-376q0 -9 5 -17t9.5 -11.5t11.5 -8.5z" />
    <glyph glyph-name="u" unicode="&#xfb;" horiz-adv-x="566" 
d="M542 66q10 -7 0 -9q-113 -8 -184 -55q-7 -5 -7 4v102q-59 -56 -113.5 -82t-95 -19.5t-64.5 47.5t-24 112v216q0 9 -4.5 17t-9.5 12t-12 8.5l-7 4.5q-10 8 0 10q115 8 184 55q7 4 7 -5v-318q0 -45 15.5 -64.5t38 -13.5t45.5 22t40 37v235q0 9 -4.5 17t-9.5 12t-12 8.5
l-7 4.5q-10 8 0 10q115 8 184 55q7 4 7 -5v-376q0 -9 5 -17t9.5 -11.5t11.5 -8.5z" />
    <glyph glyph-name="u" unicode="&#xfa;" horiz-adv-x="566" 
d="M542 66q10 -7 0 -9q-113 -8 -184 -55q-7 -5 -7 4v102q-59 -56 -113.5 -82t-95 -19.5t-64.5 47.5t-24 112v216q0 9 -4.5 17t-9.5 12t-12 8.5l-7 4.5q-10 8 0 10q115 8 184 55q7 4 7 -5v-318q0 -45 15.5 -64.5t38 -13.5t45.5 22t40 37v235q0 9 -4.5 17t-9.5 12t-12 8.5
l-7 4.5q-10 8 0 10q115 8 184 55q7 4 7 -5v-376q0 -9 5 -17t9.5 -11.5t11.5 -8.5z" />
    <glyph glyph-name="u" unicode="&#xf9;" horiz-adv-x="566" 
d="M542 66q10 -7 0 -9q-113 -8 -184 -55q-7 -5 -7 4v102q-59 -56 -113.5 -82t-95 -19.5t-64.5 47.5t-24 112v216q0 9 -4.5 17t-9.5 12t-12 8.5l-7 4.5q-10 8 0 10q115 8 184 55q7 4 7 -5v-318q0 -45 15.5 -64.5t38 -13.5t45.5 22t40 37v235q0 9 -4.5 17t-9.5 12t-12 8.5
l-7 4.5q-10 8 0 10q115 8 184 55q7 4 7 -5v-376q0 -9 5 -17t9.5 -11.5t11.5 -8.5z" />
    <glyph glyph-name="v" unicode="v" horiz-adv-x="488" 
d="M324 468l163 -2v-9q-17 0 -38 -21.5t-39 -67.5l-133 -357l-2 -11h-37h-39l-149 402q-10 20 -26 39.5t-23 19.5v9h255v-9q-11 0 -32.5 -21t-14.5 -38q54 -175 82 -260l83 226q7 24 3 41t-16 28t-22 16t-15 5v10z" />
    <glyph glyph-name="w" unicode="w" horiz-adv-x="787" 
d="M623 469l163 -1v-10q-17 0 -37.5 -21.5t-39.5 -67.5l-133 -357l-2 -10h-37h-38l-99 275l-130 -272q-1 -2 -1 -5h-2h-73l-144 402q-5 20 -22.5 39.5t-26.5 19.5v9h255v-9q-12 0 -34 -19.5t-13 -39.5q59 -205 82 -278l94 196l-29 83q-7 13 -16.5 26.5t-19 23t-14.5 9.5v9
h255v-9q-11 0 -32.5 -21t-14.5 -38q51 -174 76 -258l84 224q6 24 2 41.5t-15.5 28t-22 15.5t-15.5 5v10z" />
    <glyph glyph-name="x" unicode="x" horiz-adv-x="513" 
d="M508 457q-15 0 -60.5 -34t-61.5 -56l-73 -92l129 -207q14 -22 28.5 -36.5t22 -18t12.5 -3.5v-10h-225v10q6 0 10.5 6t3.5 20t-10 32l-60 96l-50 -64q-17 -27 -12.5 -47t15 -31.5t17.5 -11.5v-10h-177v10q15 0 60.5 34t61.5 56l69 88l-132 212q-14 22 -31 36.5t-26.5 18
t-15.5 3.5v10h243v-10q-6 0 -12 -6t-8 -19.5t8 -32.5l64 -100l52 67q18 26 13.5 46.5t-15 32t-17.5 11.5v9h177v-9z" />
    <glyph glyph-name="y" unicode="y" horiz-adv-x="486" 
d="M323 468l163 -2v-9q-17 0 -38 -21.5t-40 -67.5l-187 -478q-44 -116 -104 -116q-36 0 -53 26.5t-10 55t32 32.5q10 -17 30.5 -20.5t42 9t32.5 38.5l27 67h-12l-156 420q-10 20 -26 39.5t-23 19.5v9h255v-9q-6 0 -19 -9t-23 -23.5t-5 -26.5q49 -169 76 -254l88 220
q7 24 2.5 41t-16 28t-21.5 16t-15 5v10z" />
    <glyph glyph-name="y" unicode="&#xff;" horiz-adv-x="486" 
d="M323 468l163 -2v-9q-17 0 -38 -21.5t-40 -67.5l-187 -478q-44 -116 -104 -116q-36 0 -53 26.5t-10 55t32 32.5q10 -17 30.5 -20.5t42 9t32.5 38.5l27 67h-12l-156 420q-10 20 -26 39.5t-23 19.5v9h255v-9q-6 0 -19 -9t-23 -23.5t-5 -26.5q49 -169 76 -254l88 220
q7 24 2.5 41t-16 28t-21.5 16t-15 5v10z" />
    <glyph glyph-name="y" unicode="&#xfd;" horiz-adv-x="486" 
d="M323 468l163 -2v-9q-17 0 -38 -21.5t-40 -67.5l-187 -478q-44 -116 -104 -116q-36 0 -53 26.5t-10 55t32 32.5q10 -17 30.5 -20.5t42 9t32.5 38.5l27 67h-12l-156 420q-10 20 -26 39.5t-23 19.5v9h255v-9q-6 0 -19 -9t-23 -23.5t-5 -26.5q49 -169 76 -254l88 220
q7 24 2.5 41t-16 28t-21.5 16t-15 5v10z" />
    <glyph glyph-name="z" unicode="z" horiz-adv-x="412" 
d="M359 168q1 2 5.5 2.5t8.5 0t4 -2.5v-168h-364l228 449q-83 -1 -121 -22.5t-71 -83.5q-1 -2 -9 -2t-8 2l19 127h344l-227 -447q144 10 191 145z" />
    <glyph glyph-name="nonbreakingspace" unicode="&#xa0;" horiz-adv-x="282" 
 />
    <glyph glyph-name="softhyphen" unicode="&#xad;" 
 />
    </font>
</defs>
</svg>
